<svg width="500" height="300" fill="none" xmlns="http://www.w3.org/2000/svg"><g clip-path="url(#clip0_1_197)"><g filter="url(#filter0_d_1_197)"><path d="M0 4a4 4 0 014-4h492a4 4 0 014 4v292a4 4 0 01-4 4H4a4 4 0 01-4-4V4z" fill="#fff"/></g><g clip-path="url(#clip1_1_197)"><path d="M30 30h440v240H30V30z" fill="#fff"/><path d="M42.852 54.437c0-.42-.148-.773-.445-1.06-.291-.287-.786-.547-1.483-.78-.97-.296-1.68-.68-2.126-1.155-.442-.478-.663-1.084-.663-1.818 0-.747.216-1.36.65-1.839.437-.478 1.036-.763 1.797-.854v-1.497h1.019v1.504c.765.104 1.36.426 1.784.963.428.538.642 1.274.642 2.208H42.77c0-.642-.152-1.153-.457-1.53-.306-.38-.718-.568-1.238-.568-.542 0-.957.141-1.244.424-.287.278-.43.667-.43 1.168 0 .465.15.837.45 1.115.306.273.805.524 1.498.752.697.223 1.24.471 1.627.745.392.269.679.583.86.943.188.36.281.782.281 1.265 0 .77-.232 1.39-.697 1.86-.46.469-1.107.747-1.941.833v1.306h-1.012v-1.306c-.848-.077-1.513-.378-1.996-.902-.479-.529-.718-1.244-.718-2.147h1.265c0 .634.166 1.121.499 1.463.332.342.804.513 1.415.513.597 0 1.066-.144 1.408-.43.342-.288.513-.68.513-1.176zm5.933 1.668c.451 0 .846-.137 1.183-.41.337-.274.524-.616.56-1.026h1.197a2.293 2.293 0 01-.438 1.21 2.875 2.875 0 01-1.08.916c-.447.228-.92.342-1.422.342-1.007 0-1.81-.335-2.406-1.005-.593-.675-.889-1.595-.889-2.762v-.212c0-.72.132-1.36.397-1.92a3.02 3.02 0 011.135-1.306c.496-.31 1.082-.465 1.756-.465.83 0 1.518.248 2.065.745.551.497.845 1.141.882 1.934h-1.197c-.036-.478-.218-.87-.547-1.175-.323-.31-.724-.465-1.203-.465-.642 0-1.141.232-1.497.697-.35.46-.526 1.128-.526 2.003v.24c0 .852.175 1.508.526 1.968.351.46.852.69 1.504.69zm5.736.895h-1.265V46.5h1.264V57zm3.404 0H56.66v-7.397h1.265V57zm-1.367-9.358c0-.206.061-.379.184-.52.128-.141.315-.212.56-.212.247 0 .434.07.561.212a.747.747 0 01.192.52.722.722 0 01-.192.512c-.127.137-.314.205-.56.205-.246 0-.433-.068-.56-.205a.738.738 0 01-.185-.512zm6.466 9.495c-1.002 0-1.818-.328-2.447-.985-.629-.66-.943-1.542-.943-2.645v-.233c0-.733.139-1.387.417-1.962a3.283 3.283 0 011.176-1.353 2.958 2.958 0 011.64-.492c.962 0 1.71.316 2.242.95.534.633.8 1.54.8 2.72v.527H60.9c.018.73.23 1.32.635 1.77.41.447.93.67 1.559.67.446 0 .825-.09 1.135-.273.31-.182.58-.424.813-.725l.773.602c-.62.953-1.55 1.429-2.79 1.429zm-.157-6.631c-.51 0-.939.187-1.285.56-.346.37-.56.89-.642 1.559h3.704v-.096c-.036-.642-.21-1.139-.519-1.49-.31-.355-.73-.533-1.258-.533zm5.708-.903l.041.93c.565-.71 1.304-1.066 2.215-1.066 1.563 0 2.352.882 2.365 2.645V57h-1.264v-4.895c-.005-.533-.128-.927-.37-1.182-.236-.255-.608-.383-1.114-.383-.41 0-.77.11-1.08.328-.31.219-.551.506-.724.861V57h-1.265v-7.397h1.196zm8.244-1.79v1.79H78.2v.978h-1.38v4.587c0 .296.06.52.184.67.123.146.333.219.629.219.146 0 .346-.028.601-.082V57a3.669 3.669 0 01-.97.137c-.565 0-.992-.171-1.279-.513-.287-.342-.43-.827-.43-1.456v-4.587h-1.347v-.978h1.347v-1.79h1.264z" fill="#008"/><path d="M119 49.132l.038.863c.524-.66 1.21-.99 2.056-.99 1.452 0 2.184.819 2.197 2.456V56h-1.175v-4.545c-.004-.495-.118-.861-.343-1.098-.22-.237-.565-.355-1.034-.355-.381 0-.715.101-1.003.304a2.07 2.07 0 00-.673.8V56h-1.174v-6.868H119zm8.912 6.995c-.931 0-1.689-.305-2.273-.914-.584-.614-.876-1.433-.876-2.457v-.215c0-.682.129-1.289.387-1.822a3.057 3.057 0 011.092-1.257c.47-.305.978-.457 1.524-.457.893 0 1.587.294 2.082.882.495.588.742 1.43.742 2.527v.488h-4.652c.016.677.213 1.225.59 1.644.381.415.863.623 1.447.623.415 0 .766-.085 1.054-.254.288-.17.539-.394.755-.673l.717.558c-.575.885-1.438 1.327-2.589 1.327zm-.146-6.157c-.474 0-.872.173-1.194.52-.321.343-.52.825-.596 1.447h3.44v-.088c-.034-.597-.195-1.058-.482-1.384-.288-.33-.677-.495-1.168-.495zm10.27 4.411l1.32-5.25h1.175l-2 6.869h-.952l-1.669-5.205L134.285 56h-.952l-1.994-6.868h1.168l1.352 5.141 1.6-5.141h.946l1.631 5.25z" fill="#000"/><path d="M365.909 52.96c0-1.03.137-2.019.41-2.967a8.678 8.678 0 011.238-2.584c.547-.775 1.114-1.321 1.702-1.64l.26.834c-.666.51-1.213 1.29-1.641 2.337-.424 1.049-.656 2.222-.697 3.52l-.007.582c0 1.76.321 3.286.964 4.58.387.775.847 1.38 1.381 1.818l-.26.773c-.606-.337-1.185-.903-1.737-1.695-1.075-1.55-1.613-3.402-1.613-5.558zm58.967.068c0 1.017-.134 1.992-.403 2.926a8.566 8.566 0 01-1.224 2.577c-.547.789-1.121 1.35-1.723 1.682l-.266-.773c.702-.537 1.264-1.371 1.688-2.502.429-1.134.647-2.392.656-3.773v-.219c0-.957-.1-1.845-.3-2.666a8.934 8.934 0 00-.841-2.215c-.356-.651-.757-1.16-1.203-1.524l.266-.772c.602.332 1.174.888 1.716 1.668a8.544 8.544 0 011.224 2.577c.273.938.41 1.943.41 3.014z" fill="#090"/><path d="M42.852 114.437c0-.42-.148-.773-.445-1.06-.291-.287-.786-.547-1.483-.779-.97-.297-1.68-.682-2.126-1.156-.442-.478-.663-1.084-.663-1.818 0-.747.216-1.36.65-1.839.437-.478 1.036-.763 1.797-.854v-1.497h1.019v1.504c.765.104 1.36.426 1.784.963.428.538.642 1.274.642 2.208H42.77c0-.642-.152-1.153-.457-1.531-.306-.378-.718-.567-1.238-.567-.542 0-.957.141-1.244.424-.287.278-.43.667-.43 1.169 0 .464.15.836.45 1.114.306.273.805.524 1.498.752.697.223 1.24.471 1.627.745.392.269.679.583.86.943.188.36.281.782.281 1.265 0 .77-.232 1.39-.697 1.859-.46.47-1.107.748-1.941.834v1.306h-1.012v-1.306c-.848-.077-1.513-.378-1.996-.902-.479-.529-.718-1.244-.718-2.147h1.265c0 .634.166 1.121.499 1.463.332.342.804.513 1.415.513.597 0 1.066-.144 1.408-.431.342-.287.513-.679.513-1.175zm6.542-3.699a3.78 3.78 0 00-.622-.048c-.83 0-1.393.354-1.689 1.06V117h-1.265v-7.396h1.23l.021.854c.415-.661 1.003-.991 1.764-.991.246 0 .433.032.56.095v1.176zm4.101 6.399c-1.002 0-1.818-.328-2.447-.985-.63-.66-.944-1.542-.944-2.645v-.233c0-.733.14-1.387.418-1.962a3.29 3.29 0 011.175-1.353 2.958 2.958 0 011.64-.492c.962 0 1.71.317 2.243.95.533.633.8 1.54.8 2.721v.526h-5.01c.017.729.23 1.319.635 1.771.41.446.93.669 1.558.669.447 0 .825-.091 1.135-.273.31-.182.581-.424.814-.725l.772.602c-.62.952-1.55 1.429-2.789 1.429zm-.157-6.631c-.51 0-.939.187-1.285.56-.347.37-.56.889-.643 1.559h3.705v-.096c-.036-.642-.21-1.139-.52-1.49-.31-.355-.728-.533-1.257-.533zm8.818 4.532c0-.342-.13-.606-.39-.793-.255-.191-.703-.355-1.346-.492-.638-.137-1.146-.301-1.525-.492-.373-.192-.651-.42-.834-.684a1.65 1.65 0 01-.266-.943c0-.606.255-1.119.765-1.538.515-.42 1.172-.629 1.97-.629.838 0 1.517.216 2.036.649.524.433.786.987.786 1.661h-1.27c0-.346-.15-.645-.445-.895-.292-.251-.661-.376-1.108-.376-.46 0-.82.1-1.08.301-.26.2-.39.462-.39.786 0 .305.121.535.363.69.241.155.677.303 1.306.445.633.141 1.146.309 1.538.505.392.196.68.433.868.711.191.274.287.609.287 1.005 0 .661-.264 1.192-.793 1.593-.529.396-1.215.595-2.058.595-.592 0-1.116-.105-1.572-.315a2.585 2.585 0 01-1.073-.875 2.145 2.145 0 01-.383-1.223h1.265c.022.423.191.761.505 1.011.32.246.739.369 1.258.369.479 0 .862-.095 1.149-.287.291-.196.437-.455.437-.779zm9.16-1.654c0 1.125-.257 2.032-.772 2.72-.515.689-1.212 1.033-2.092 1.033-.898 0-1.604-.285-2.119-.855v3.562h-1.265v-10.24h1.156l.061.82c.515-.638 1.23-.957 2.147-.957.888 0 1.59.335 2.105 1.005.52.67.78 1.602.78 2.796v.116zm-1.264-.144c0-.834-.178-1.492-.533-1.975-.356-.483-.844-.725-1.463-.725-.766 0-1.34.34-1.723 1.019v3.534c.378.674.957 1.011 1.736 1.011.606 0 1.087-.239 1.443-.717.36-.483.54-1.199.54-2.147zm2.543-.007c0-.724.141-1.376.424-1.955.287-.578.683-1.025 1.189-1.34.51-.314 1.091-.471 1.743-.471 1.007 0 1.82.348 2.44 1.046.625.697.937 1.624.937 2.782v.089c0 .72-.139 1.367-.417 1.941a3.112 3.112 0 01-1.183 1.333c-.51.319-1.098.479-1.763.479-1.003 0-1.816-.349-2.44-1.046-.62-.697-.93-1.62-.93-2.769v-.089zm1.271.151c0 .82.19 1.479.568 1.975.382.497.893.745 1.53.745.643 0 1.154-.25 1.532-.751.378-.506.568-1.213.568-2.12 0-.811-.194-1.467-.582-1.968-.382-.506-.893-.759-1.53-.759-.625 0-1.129.248-1.512.745-.382.497-.574 1.208-.574 2.133zm8.244-3.78l.041.929c.566-.711 1.304-1.066 2.215-1.066 1.563 0 2.352.882 2.365 2.645V117h-1.264v-4.895c-.005-.533-.128-.927-.37-1.182-.236-.255-.608-.383-1.114-.383-.41 0-.77.109-1.08.328-.31.219-.551.506-.724.861V117h-1.265v-7.396h1.196zm10.835 5.434c0-.342-.13-.606-.39-.793-.255-.191-.703-.355-1.346-.492-.638-.137-1.146-.301-1.524-.492-.374-.192-.652-.42-.834-.684a1.65 1.65 0 01-.267-.943c0-.606.255-1.119.766-1.538.515-.42 1.17-.629 1.968-.629.839 0 1.518.216 2.038.649.524.433.786.987.786 1.661H92.87c0-.346-.148-.645-.444-.895-.292-.251-.661-.376-1.108-.376-.46 0-.82.1-1.08.301-.26.2-.39.462-.39.786 0 .305.121.535.363.69.242.155.677.303 1.306.445.633.141 1.146.309 1.538.505.392.196.681.433.868.711.191.274.287.609.287 1.005 0 .661-.264 1.192-.793 1.593-.529.396-1.215.595-2.058.595-.592 0-1.116-.105-1.572-.315a2.584 2.584 0 01-1.073-.875 2.145 2.145 0 01-.383-1.223h1.265c.022.423.191.761.506 1.011.319.246.738.369 1.257.369.479 0 .862-.095 1.149-.287.291-.196.437-.455.437-.779zm5.982 2.099c-1.003 0-1.819-.328-2.448-.985-.628-.66-.943-1.542-.943-2.645v-.233c0-.733.14-1.387.417-1.962a3.29 3.29 0 011.176-1.353 2.959 2.959 0 011.64-.492c.962 0 1.71.317 2.243.95.533.633.8 1.54.8 2.721v.526h-5.011c.018.729.23 1.319.635 1.771.41.446.93.669 1.56.669.446 0 .824-.091 1.134-.273.31-.182.581-.424.813-.725l.773.602c-.62.952-1.55 1.429-2.79 1.429zm-.158-6.631c-.51 0-.938.187-1.285.56-.346.37-.56.889-.642 1.559h3.705v-.096c-.037-.642-.21-1.139-.52-1.49-.31-.355-.729-.533-1.258-.533zm40.083 3.931c0-.42-.149-.773-.445-1.06-.291-.287-.786-.547-1.483-.779-.971-.297-1.68-.682-2.126-1.156-.442-.478-.663-1.084-.663-1.818 0-.747.216-1.36.649-1.839.438-.478 1.037-.763 1.798-.854v-1.497h1.019v1.504c.765.104 1.36.426 1.784.963.428.538.642 1.274.642 2.208h-1.257c0-.642-.153-1.153-.458-1.531-.306-.378-.718-.567-1.238-.567-.542 0-.957.141-1.244.424-.287.278-.431.667-.431 1.169 0 .464.151.836.452 1.114.305.273.804.524 1.497.752.697.223 1.239.471 1.627.745.392.269.679.583.861.943.187.36.28.782.28 1.265 0 .77-.232 1.39-.697 1.859-.46.47-1.107.748-1.941.834v1.306h-1.012v-1.306c-.848-.077-1.513-.378-1.996-.902-.479-.529-.718-1.244-.718-2.147h1.265c0 .634.166 1.121.499 1.463.332.342.804.513 1.415.513.597 0 1.066-.144 1.408-.431.342-.287.513-.679.513-1.175zm5.933 1.667a1.82 1.82 0 001.183-.41 1.44 1.44 0 00.56-1.025h1.197a2.295 2.295 0 01-.438 1.21 2.876 2.876 0 01-1.08.916 3.087 3.087 0 01-1.422.342c-1.007 0-1.809-.335-2.406-1.005-.593-.675-.889-1.595-.889-2.762v-.212c0-.72.132-1.36.397-1.921.264-.56.642-.995 1.134-1.305.497-.31 1.083-.465 1.757-.465.83 0 1.518.248 2.065.745.551.497.845 1.142.882 1.934h-1.197c-.036-.478-.218-.87-.547-1.175-.323-.31-.724-.465-1.203-.465-.642 0-1.141.232-1.497.697-.351.46-.526 1.128-.526 2.003v.239c0 .853.175 1.509.526 1.969.351.46.852.69 1.504.69zm5.736.896h-1.265v-10.5h1.265V117zm3.404 0h-1.265v-7.396h1.265V117zm-1.367-9.358c0-.205.061-.379.184-.52.128-.141.315-.212.561-.212.246 0 .433.071.56.212a.746.746 0 01.192.52.718.718 0 01-.192.512c-.127.137-.314.205-.56.205-.246 0-.433-.068-.561-.205a.735.735 0 01-.184-.512zm6.466 9.495c-1.002 0-1.818-.328-2.447-.985-.629-.66-.943-1.542-.943-2.645v-.233c0-.733.139-1.387.417-1.962a3.281 3.281 0 011.176-1.353 2.954 2.954 0 011.64-.492c.962 0 1.709.317 2.242.95.534.633.8 1.54.8 2.721v.526h-5.011c.019.729.231 1.319.636 1.771.41.446.93.669 1.559.669.446 0 .825-.091 1.135-.273a2.85 2.85 0 00.813-.725l.772.602c-.619.952-1.549 1.429-2.789 1.429zm-.157-6.631c-.51 0-.939.187-1.285.56-.346.37-.561.889-.643 1.559h3.706v-.096c-.037-.642-.21-1.139-.52-1.49-.31-.355-.729-.533-1.258-.533zm5.708-.902l.041.929c.565-.711 1.304-1.066 2.215-1.066 1.563 0 2.352.882 2.365 2.645V117h-1.264v-4.895c-.005-.533-.128-.927-.37-1.182-.236-.255-.608-.383-1.114-.383-.41 0-.77.109-1.08.328-.31.219-.551.506-.724.861V117h-1.265v-7.396h1.196zm8.244-1.792v1.792h1.381v.977h-1.381v4.587c0 .296.062.52.185.67.123.146.333.219.629.219.146 0 .346-.028.601-.082V117a3.667 3.667 0 01-.97.137c-.565 0-.992-.171-1.279-.513-.287-.342-.43-.827-.43-1.456v-4.587h-1.347v-.977h1.347v-1.792h1.264z" fill="#008"/><path d="M206.381 117v-6.419h-1.169v-.977h1.169v-.629c0-.825.235-1.468.704-1.928.474-.46 1.142-.691 2.003-.691.51 0 1.155.139 1.934.417l-.211 1.067c-.57-.228-1.112-.342-1.627-.342-.543 0-.935.123-1.176.369-.237.242-.356.606-.356 1.094v.643h1.511v.977h-1.511V117h-1.271zm5.27 0h-1.271v-7.396h1.271V117zm3.432 0h-1.265v-10.5h1.265V117zm5.1.137c-1.003 0-1.819-.328-2.448-.985-.629-.66-.943-1.542-.943-2.645v-.233c0-.733.139-1.387.417-1.962a3.288 3.288 0 011.176-1.353 2.96 2.96 0 011.64-.492c.962 0 1.709.317 2.243.95.533.633.799 1.54.799 2.721v.526h-5.01c.018.729.23 1.319.635 1.771.411.446.93.669 1.559.669.447 0 .825-.091 1.135-.273.31-.182.581-.424.813-.725l.773.602c-.62.952-1.55 1.429-2.789 1.429zm-.158-6.631c-.51 0-.938.187-1.285.56-.346.37-.56.889-.642 1.559h3.705v-.096c-.037-.642-.21-1.139-.52-1.49-.31-.355-.729-.533-1.258-.533zm8.819 4.532c0-.342-.13-.606-.39-.793-.255-.191-.704-.355-1.347-.492-.638-.137-1.146-.301-1.524-.492-.374-.192-.652-.42-.834-.684a1.648 1.648 0 01-.267-.943c0-.606.256-1.119.766-1.538.515-.42 1.171-.629 1.969-.629.838 0 1.517.216 2.037.649.524.433.786.987.786 1.661h-1.271c0-.346-.149-.645-.445-.895-.291-.251-.661-.376-1.107-.376-.46 0-.821.1-1.08.301-.26.2-.39.462-.39.786 0 .305.121.535.362.69.242.155.677.303 1.306.445.634.141 1.146.309 1.538.505.392.196.681.433.868.711.192.274.287.609.287 1.005 0 .661-.264 1.192-.793 1.593-.528.396-1.214.595-2.057.595-.593 0-1.117-.105-1.572-.315a2.587 2.587 0 01-1.074-.875 2.146 2.146 0 01-.383-1.223h1.265c.023.423.192.761.506 1.011.319.246.738.369 1.258.369.478 0 .861-.095 1.148-.287.292-.196.438-.455.438-.779zm32.805-1.798c0-1.135.269-2.046.807-2.734.538-.693 1.242-1.039 2.112-1.039.866 0 1.552.296 2.058.888V106.5h1.265V117h-1.162l-.062-.793c-.506.62-1.21.93-2.112.93-.857 0-1.557-.351-2.099-1.053-.538-.702-.807-1.618-.807-2.748v-.096zm1.265.144c0 .838.173 1.495.52 1.969.346.473.824.71 1.435.71.802 0 1.388-.36 1.757-1.08v-3.397c-.378-.697-.959-1.046-1.743-1.046-.62 0-1.103.239-1.449.718-.347.478-.52 1.187-.52 2.126zm6.61-.151c0-.724.142-1.376.424-1.955a3.226 3.226 0 011.19-1.34c.51-.314 1.091-.471 1.743-.471 1.007 0 1.82.348 2.44 1.046.625.697.937 1.624.937 2.782v.089c0 .72-.139 1.367-.417 1.941a3.117 3.117 0 01-1.183 1.333c-.51.319-1.098.479-1.763.479-1.003 0-1.817-.349-2.441-1.046-.62-.697-.93-1.62-.93-2.769v-.089zm1.272.151c0 .82.189 1.479.567 1.975.383.497.894.745 1.532.745.642 0 1.153-.25 1.531-.751.378-.506.567-1.213.567-2.12 0-.811-.194-1.467-.581-1.968-.383-.506-.893-.759-1.531-.759-.624 0-1.128.248-1.511.745s-.574 1.208-.574 2.133zm13.597 1.873l1.421-5.653h1.265L284.926 117H283.9l-1.797-5.605-1.75 5.605h-1.026l-2.146-7.396h1.257l1.457 5.537 1.722-5.537h1.019l1.757 5.653zm5.174-5.653l.041.929c.566-.711 1.304-1.066 2.215-1.066 1.563 0 2.352.882 2.365 2.645V117h-1.264v-4.895c-.005-.533-.128-.927-.369-1.182-.237-.255-.609-.383-1.115-.383-.41 0-.77.109-1.08.328-.31.219-.551.506-.724.861V117h-1.265v-7.396h1.196zM297.47 117h-1.265v-10.5h1.265V117zm1.695-3.767c0-.724.141-1.376.424-1.955.287-.578.683-1.025 1.189-1.34.511-.314 1.092-.471 1.743-.471 1.008 0 1.821.348 2.441 1.046.624.697.936 1.624.936 2.782v.089c0 .72-.139 1.367-.417 1.941a3.109 3.109 0 01-1.182 1.333c-.511.319-1.098.479-1.764.479-1.002 0-1.816-.349-2.44-1.046-.62-.697-.93-1.62-.93-2.769v-.089zm1.272.151c0 .82.189 1.479.567 1.975.383.497.893.745 1.531.745.643 0 1.153-.25 1.531-.751.379-.506.568-1.213.568-2.12 0-.811-.194-1.467-.581-1.968-.383-.506-.893-.759-1.532-.759-.624 0-1.127.248-1.51.745s-.574 1.208-.574 2.133zM312.051 117c-.073-.146-.132-.406-.178-.779-.588.61-1.29.916-2.105.916-.73 0-1.329-.205-1.798-.616a2.014 2.014 0 01-.698-1.572c0-.77.292-1.367.875-1.791.588-.428 1.413-.642 2.475-.642h1.231v-.581c0-.442-.133-.793-.397-1.053-.264-.264-.654-.397-1.169-.397-.451 0-.829.114-1.135.342-.305.228-.458.504-.458.827h-1.271c0-.369.13-.724.389-1.066.265-.346.62-.62 1.067-.82a3.604 3.604 0 011.483-.301c.853 0 1.52.214 2.003.642.483.424.734 1.01.752 1.757v3.405c0 .679.087 1.219.26 1.62V117h-1.326zm-2.099-.964a2.22 2.22 0 001.128-.307c.356-.206.613-.472.773-.8v-1.518h-.992c-1.549 0-2.324.454-2.324 1.36 0 .397.132.707.397.93.264.223.603.335 1.018.335zm4.84-2.796c0-1.135.269-2.046.807-2.734.537-.693 1.241-1.039 2.112-1.039.866 0 1.552.296 2.058.888V106.5h1.264V117h-1.162l-.061-.793c-.506.62-1.21.93-2.113.93-.857 0-1.556-.351-2.098-1.053-.538-.702-.807-1.618-.807-2.748v-.096zm1.265.144c0 .838.173 1.495.519 1.969.347.473.825.71 1.436.71.802 0 1.387-.36 1.757-1.08v-3.397c-.379-.697-.96-1.046-1.744-1.046-.619 0-1.102.239-1.449.718-.346.478-.519 1.187-.519 2.126z" fill="#004000"/><path d="M74.852 144.437c0-.42-.148-.773-.445-1.06-.291-.287-.786-.547-1.483-.779-.97-.297-1.68-.682-2.126-1.156-.442-.478-.663-1.084-.663-1.818 0-.747.216-1.36.65-1.839.437-.478 1.036-.763 1.797-.854v-1.497h1.019v1.504c.765.104 1.36.426 1.784.963.428.538.642 1.274.642 2.208H74.77c0-.642-.152-1.153-.458-1.531-.305-.378-.717-.567-1.237-.567-.542 0-.957.141-1.244.424-.287.278-.43.667-.43 1.169 0 .464.15.836.45 1.114.306.273.805.524 1.498.752.697.223 1.24.471 1.627.745.392.269.679.583.86.943.188.36.281.782.281 1.265 0 .77-.232 1.39-.697 1.859-.46.47-1.108.748-1.941.834v1.306h-1.012v-1.306c-.848-.077-1.513-.378-1.996-.902-.479-.529-.718-1.244-.718-2.147h1.265c0 .634.166 1.121.499 1.463.332.342.804.513 1.415.513.597 0 1.066-.144 1.408-.431.342-.287.513-.679.513-1.175zm9.214-1.053c0 1.125-.257 2.032-.772 2.72-.515.689-1.212 1.033-2.092 1.033-.898 0-1.604-.285-2.119-.855v3.562h-1.265v-10.24h1.156l.061.82c.515-.638 1.23-.957 2.147-.957.888 0 1.59.335 2.105 1.005.52.67.78 1.602.78 2.796v.116zm-1.264-.144c0-.834-.178-1.492-.533-1.975-.356-.483-.844-.725-1.463-.725-.766 0-1.34.34-1.723 1.019v3.534c.378.674.957 1.011 1.736 1.011.606 0 1.087-.239 1.443-.717.36-.483.54-1.199.54-2.147zm6.453-2.502a3.779 3.779 0 00-.622-.048c-.83 0-1.392.354-1.689 1.06V147H85.68v-7.396h1.23l.02.854c.415-.661 1.003-.991 1.764-.991.246 0 .433.032.56.095v1.176zm.697 2.495c0-.724.141-1.376.424-1.955a3.226 3.226 0 011.19-1.34c.51-.314 1.09-.471 1.743-.471 1.007 0 1.82.348 2.44 1.046.624.697.937 1.624.937 2.782v.089c0 .72-.14 1.367-.417 1.941a3.113 3.113 0 01-1.183 1.333c-.51.319-1.098.479-1.764.479-1.002 0-1.816-.349-2.44-1.046-.62-.697-.93-1.62-.93-2.769v-.089zm1.272.151c0 .82.189 1.479.567 1.975.383.497.893.745 1.531.745.643 0 1.153-.25 1.531-.751.379-.506.568-1.213.568-2.12 0-.811-.194-1.467-.581-1.968-.383-.506-.893-.759-1.531-.759-.625 0-1.128.248-1.511.745s-.574 1.208-.574 2.133zm8.353-3.78v8.25c0 1.422-.645 2.133-1.934 2.133a2.35 2.35 0 01-.773-.123v-1.011c.146.036.337.054.574.054.283 0 .497-.077.643-.232.15-.151.225-.415.225-.793v-8.278h1.265zm-1.394-1.962c0-.201.061-.372.184-.513.128-.146.312-.219.554-.219.246 0 .433.071.56.212a.748.748 0 01.192.52.72.72 0 01-.192.512c-.127.137-.314.205-.56.205-.246 0-.43-.068-.554-.205a.735.735 0 01-.184-.512zm6.507 9.495c-1.002 0-1.818-.328-2.447-.985-.629-.66-.943-1.542-.943-2.645v-.233c0-.733.139-1.387.417-1.962a3.281 3.281 0 011.176-1.353 2.954 2.954 0 011.64-.492c.962 0 1.709.317 2.242.95.534.633.8 1.54.8 2.721v.526h-5.011c.019.729.231 1.319.636 1.771.41.446.93.669 1.559.669.446 0 .825-.091 1.135-.273a2.85 2.85 0 00.813-.725l.772.602c-.619.952-1.549 1.429-2.789 1.429zm-.157-6.631c-.51 0-.939.187-1.285.56-.346.37-.56.889-.643 1.559h3.706v-.096c-.037-.642-.21-1.139-.52-1.49-.31-.355-.729-.533-1.258-.533zm7.479 5.598c.451 0 .845-.136 1.182-.41.338-.273.524-.615.561-1.025h1.196a2.294 2.294 0 01-.437 1.21 2.876 2.876 0 01-1.08.916 3.087 3.087 0 01-1.422.342c-1.007 0-1.81-.335-2.407-1.005-.592-.675-.888-1.595-.888-2.762v-.212c0-.72.132-1.36.396-1.921.265-.56.643-.995 1.135-1.305.497-.31 1.082-.465 1.757-.465.829 0 1.517.248 2.064.745.552.497.846 1.142.882 1.934h-1.196c-.037-.478-.219-.87-.547-1.175-.324-.31-.725-.465-1.203-.465-.643 0-1.142.232-1.497.697-.351.46-.527 1.128-.527 2.003v.239c0 .853.176 1.509.527 1.969.351.46.852.69 1.504.69zm6.077-8.292v1.792h1.381v.977h-1.381v4.587c0 .296.061.52.184.67.123.146.333.219.629.219.146 0 .347-.028.602-.082V147a3.674 3.674 0 01-.971.137c-.565 0-.991-.171-1.278-.513-.287-.342-.431-.827-.431-1.456v-4.587h-1.346v-.977h1.346v-1.792h1.265zM122.56 147h-1.313v-9.953h1.313V147zm1.9-3.76c0-1.135.269-2.046.807-2.734.537-.693 1.241-1.039 2.112-1.039.866 0 1.552.296 2.058.888V136.5h1.264V147h-1.162l-.061-.793c-.506.62-1.21.93-2.113.93-.857 0-1.556-.351-2.098-1.053-.538-.702-.807-1.618-.807-2.748v-.096zm1.265.144c0 .838.173 1.495.519 1.969.346.473.825.71 1.436.71.802 0 1.387-.36 1.757-1.08v-3.397c-.379-.697-.96-1.046-1.744-1.046-.619 0-1.103.239-1.449.718-.346.478-.519 1.187-.519 2.126z" fill="#008"/><path d="M72.575 166.664H71.27v11.43h1.306v1.039h-2.577v-13.508h2.577v1.039z" fill="#090"/><path d="M179.74 201.436h-5.701v-1.101h5.701v1.101zm0 2.836h-5.701v-1.093h5.701v1.093zm6.378-1.715l-4.518-1.771v-1.299l5.838 2.584v.998l-5.838 2.591v-1.312l4.518-1.791zm59.798 6.425l-.718-.492c.429-.597.652-1.212.67-1.845v-1.142h1.237v.991c0 .46-.113.921-.341 1.381-.224.46-.506.829-.848 1.107z" fill="#393"/><path d="M40.876 263.028c0 1.017-.134 1.992-.403 2.926a8.53 8.53 0 01-1.224 2.577c-.547.789-1.121 1.349-1.723 1.682l-.266-.773c.702-.537 1.264-1.371 1.688-2.502.429-1.134.647-2.392.657-3.773v-.219c0-.957-.1-1.845-.301-2.666a8.918 8.918 0 00-.841-2.215c-.356-.651-.757-1.159-1.203-1.524l.266-.772c.602.332 1.174.888 1.716 1.668a8.543 8.543 0 011.224 2.577c.273.938.41 1.943.41 3.014z" fill="#090"/><path d="M107.74 51.435h-5.701v-1.1h5.701v1.1zm0 2.837h-5.701V53.18h5.701v1.093z" fill="#393"/><path d="M378.852 54.437c0-.42-.149-.773-.445-1.06-.291-.287-.786-.547-1.483-.78-.971-.296-1.68-.68-2.126-1.155-.442-.478-.663-1.084-.663-1.818 0-.747.216-1.36.649-1.839.438-.478 1.037-.763 1.798-.854v-1.497h1.019v1.504c.765.104 1.36.426 1.784.963.428.538.642 1.274.642 2.208h-1.257c0-.642-.153-1.153-.458-1.53-.306-.38-.718-.568-1.238-.568-.542 0-.957.141-1.244.424-.287.278-.431.667-.431 1.168 0 .465.151.837.452 1.115.305.273.804.524 1.497.752.697.223 1.239.471 1.627.745.392.269.679.583.861.943.187.36.28.782.28 1.265 0 .77-.232 1.39-.697 1.86-.46.469-1.107.747-1.941.833v1.306h-1.012v-1.306c-.848-.077-1.513-.378-1.996-.902-.479-.529-.718-1.244-.718-2.147h1.265c0 .634.166 1.121.499 1.463.332.342.804.513 1.415.513.597 0 1.066-.144 1.408-.43.342-.288.513-.68.513-1.176zm4.682-6.624v1.79h1.381v.978h-1.381v4.587c0 .296.062.52.185.67.123.146.332.219.629.219.145 0 .346-.028.601-.082V57a3.662 3.662 0 01-.97.137c-.566 0-.992-.171-1.279-.513-.287-.342-.43-.827-.43-1.456v-4.587h-1.347v-.978h1.347v-1.79h1.264zm2.393 5.42c0-.724.141-1.376.424-1.955.287-.578.683-1.025 1.189-1.34.51-.314 1.092-.471 1.743-.471 1.007 0 1.821.348 2.441 1.046.624.697.936 1.624.936 2.782v.089c0 .72-.139 1.367-.417 1.941a3.11 3.11 0 01-1.182 1.333c-.511.32-1.099.479-1.764.479-1.003 0-1.816-.349-2.441-1.046-.619-.697-.929-1.62-.929-2.769v-.089zm1.271.15c0 .821.189 1.48.568 1.976.382.497.893.745 1.531.745.642 0 1.153-.25 1.531-.752.378-.505.568-1.212.568-2.119 0-.81-.194-1.467-.582-1.968-.382-.506-.893-.76-1.531-.76-.624 0-1.128.25-1.511.746-.382.497-.574 1.208-.574 2.133zm9.113.192l-.793.827V57h-1.265V46.5h1.265v6.35l.676-.813 2.304-2.434h1.538l-2.878 3.09L400.371 57h-1.483l-2.577-3.425zm7.963 3.562c-1.002 0-1.818-.328-2.447-.985-.629-.66-.943-1.542-.943-2.645v-.233c0-.733.139-1.387.417-1.962a3.275 3.275 0 011.176-1.353 2.954 2.954 0 011.64-.492c.962 0 1.709.316 2.242.95.534.633.8 1.54.8 2.72v.527h-5.011c.019.73.231 1.32.636 1.77.41.447.93.67 1.559.67.446 0 .825-.09 1.135-.273a2.85 2.85 0 00.813-.725l.772.602c-.619.953-1.549 1.429-2.789 1.429zm-.157-6.631c-.51 0-.939.187-1.285.56-.346.37-.561.89-.643 1.559h3.706v-.096c-.037-.642-.21-1.139-.52-1.49-.31-.355-.729-.533-1.258-.533zm5.708-.903l.041.93c.565-.71 1.304-1.066 2.215-1.066 1.563 0 2.352.882 2.365 2.645V57h-1.264v-4.895c-.005-.533-.128-.927-.37-1.182-.236-.255-.608-.383-1.114-.383-.41 0-.77.11-1.08.328-.31.219-.551.506-.724.861V57h-1.265v-7.397h1.196z" fill="#008"/><path d="M123.74 111.436h-5.701v-1.101h5.701v1.101zm0 2.836h-5.701v-1.093h5.701v1.093zm124.849-.984h-3.336v-1.032h3.336v1.032zm5.715-.731l-4.519-1.771v-1.299l5.838 2.584v.998l-5.838 2.591v-1.312l4.519-1.791zm-104.388 36.425l-.718-.492c.429-.597.652-1.212.67-1.845v-1.142h1.237v.991c0 .46-.113.921-.341 1.381-.224.46-.506.829-.848 1.107z" fill="#393"/><path d="M198.729 197.259l-.143 2.515h-.882l.007-3.274h1.018v.759zm2.981 2.345v8.25c0 1.422-.645 2.133-1.935 2.133-.278 0-.535-.041-.772-.123v-1.011c.146.036.337.054.574.054.283 0 .497-.077.643-.232.15-.151.225-.415.225-.793v-8.278h1.265zm-1.395-1.962c0-.201.062-.372.185-.513.128-.146.312-.219.554-.219.246 0 .433.071.56.212a.746.746 0 01.192.52.718.718 0 01-.192.512c-.127.137-.314.205-.56.205-.246 0-.431-.068-.554-.205a.735.735 0 01-.185-.512zm7.746 7.396c0-.342-.13-.606-.39-.793-.255-.191-.704-.355-1.347-.492-.638-.137-1.146-.301-1.524-.492-.374-.192-.652-.42-.834-.684a1.648 1.648 0 01-.267-.943c0-.606.255-1.119.766-1.538.515-.42 1.171-.629 1.969-.629.838 0 1.517.216 2.037.649.524.433.786.987.786 1.661h-1.272c0-.346-.148-.645-.444-.895-.292-.251-.661-.376-1.107-.376-.461 0-.821.1-1.08.301-.26.2-.39.462-.39.786 0 .305.121.535.362.69.242.155.677.303 1.306.445.633.141 1.146.309 1.538.505.392.196.681.433.868.711.191.274.287.609.287 1.005 0 .661-.264 1.192-.793 1.593-.528.396-1.214.595-2.057.595-.593 0-1.117-.105-1.573-.315a2.59 2.59 0 01-1.073-.875 2.146 2.146 0 01-.383-1.223h1.265c.023.423.191.761.506 1.011.319.246.738.369 1.258.369.478 0 .861-.095 1.148-.287.292-.196.438-.455.438-.779zm2.577-1.805c0-.724.141-1.376.424-1.955.287-.578.683-1.025 1.189-1.34.51-.314 1.091-.471 1.743-.471 1.007 0 1.821.348 2.441 1.046.624.697.936 1.624.936 2.782v.089c0 .72-.139 1.367-.417 1.941a3.11 3.11 0 01-1.183 1.333c-.51.319-1.098.479-1.763.479-1.003 0-1.816-.349-2.441-1.046-.619-.697-.929-1.62-.929-2.769v-.089zm1.271.151c0 .82.189 1.479.568 1.975.382.497.893.745 1.531.745.642 0 1.153-.25 1.531-.751.378-.506.567-1.213.567-2.12 0-.811-.193-1.467-.581-1.968-.382-.506-.893-.759-1.531-.759-.624 0-1.128.248-1.511.745-.382.497-.574 1.208-.574 2.133zm8.244-3.78l.041.929c.565-.711 1.304-1.066 2.215-1.066 1.563 0 2.352.882 2.365 2.645V207h-1.264v-4.895c-.005-.533-.128-.927-.369-1.182-.237-.255-.609-.383-1.115-.383-.41 0-.77.109-1.08.328-.31.219-.551.506-.724.861V207h-1.265v-7.396h1.196zm6.59-2.345l-.143 2.515h-.882l.007-3.274h1.018v.759z" fill="#00F"/><path d="M45.759 260.301a.8.8 0 01.191-.547c.132-.146.328-.219.588-.219.26 0 .456.073.588.219a.769.769 0 01.205.547.727.727 0 01-.205.526c-.132.141-.328.212-.588.212-.26 0-.456-.071-.588-.212a.756.756 0 01-.191-.526zm.239 8.681l-.718-.492c.429-.597.652-1.212.67-1.845v-1.142h1.237v.991c0 .46-.113.921-.341 1.381-.224.46-.506.829-.848 1.107z" fill="#393"/><path d="M141.273 47.047h1.204l4.156 10.808h-1.203l-4.157-10.808zm7.944 8.88h4.717V57h-6.037v-9.953h1.32v8.88zm5.68-2.694c0-.724.142-1.376.424-1.955a3.217 3.217 0 011.19-1.34c.51-.314 1.091-.471 1.743-.471 1.007 0 1.821.348 2.44 1.046.625.697.937 1.624.937 2.782v.089c0 .72-.139 1.367-.417 1.941a3.119 3.119 0 01-1.183 1.333c-.51.32-1.098.479-1.763.479-1.003 0-1.817-.349-2.441-1.046-.62-.697-.93-1.62-.93-2.769v-.089zm1.272.15c0 .821.189 1.48.567 1.976.383.497.894.745 1.532.745.642 0 1.153-.25 1.531-.752.378-.505.567-1.212.567-2.119 0-.81-.193-1.467-.581-1.968a1.825 1.825 0 00-1.531-.76c-.624 0-1.128.25-1.511.746-.383.497-.574 1.208-.574 2.133zm9.112.192l-.793.827V57h-1.264V46.5h1.264v6.35l.677-.813 2.304-2.434h1.538l-2.878 3.09L169.342 57h-1.484l-2.577-3.425zM174.879 57c-.073-.146-.132-.406-.178-.78-.588.611-1.29.917-2.105.917-.729 0-1.329-.205-1.798-.615a2.015 2.015 0 01-.697-1.573c0-.77.291-1.367.875-1.79.587-.43 1.412-.643 2.474-.643h1.231v-.581c0-.443-.132-.793-.397-1.053-.264-.264-.654-.397-1.169-.397-.451 0-.829.114-1.135.342-.305.228-.458.504-.458.827h-1.271c0-.369.13-.724.39-1.066.264-.346.619-.62 1.066-.82a3.62 3.62 0 011.483-.301c.853 0 1.52.214 2.003.642.483.424.734 1.01.752 1.757v3.404c0 .68.087 1.22.26 1.62V57h-1.326zm-2.099-.964a2.22 2.22 0 001.128-.308c.356-.205.613-.471.773-.8v-1.517h-.992c-1.549 0-2.324.454-2.324 1.36 0 .397.132.707.397.93.264.224.604.335 1.018.335zm6.522.964h-1.265V46.5h1.265V57zm3.404 0h-1.265v-7.397h1.265V57zm-1.367-9.358c0-.206.061-.379.184-.52.128-.141.315-.212.561-.212.246 0 .433.07.561.212a.75.75 0 01.191.52.725.725 0 01-.191.512c-.128.137-.315.205-.561.205-.246 0-.433-.068-.561-.205a.738.738 0 01-.184-.512zm7.704 7.396c0-.342-.13-.606-.39-.793-.255-.191-.704-.355-1.346-.492-.638-.137-1.147-.3-1.525-.492-.373-.192-.651-.42-.834-.684a1.655 1.655 0 01-.266-.943c0-.606.255-1.119.765-1.538.515-.42 1.171-.63 1.969-.63.839 0 1.518.217 2.037.65.524.433.786.987.786 1.661h-1.271c0-.346-.148-.645-.445-.895-.291-.25-.66-.376-1.107-.376-.46 0-.82.1-1.08.3a.948.948 0 00-.39.787c0 .305.121.535.363.69.241.155.676.303 1.305.444.634.142 1.146.31 1.538.506.392.196.682.433.869.711.191.274.287.609.287 1.005 0 .661-.265 1.192-.793 1.593-.529.396-1.215.595-2.058.595-.592 0-1.117-.105-1.572-.315a2.585 2.585 0 01-1.073-.875 2.14 2.14 0 01-.383-1.223h1.264c.023.424.192.76.506 1.011.319.246.739.37 1.258.37.479 0 .861-.096 1.148-.288.292-.196.438-.455.438-.779zm5.981 2.099c-1.002 0-1.818-.328-2.447-.985-.629-.66-.943-1.542-.943-2.645v-.233c0-.733.139-1.387.417-1.962a3.275 3.275 0 011.176-1.353 2.954 2.954 0 011.64-.492c.962 0 1.709.316 2.242.95.534.633.8 1.54.8 2.72v.527h-5.011c.019.73.231 1.32.636 1.77.41.447.93.67 1.559.67.446 0 .825-.09 1.135-.273a2.85 2.85 0 00.813-.725l.772.602c-.619.953-1.549 1.429-2.789 1.429zm-.157-6.631c-.51 0-.939.187-1.285.56-.346.37-.561.89-.643 1.559h3.706v-.096c-.037-.642-.21-1.139-.52-1.49-.31-.355-.729-.533-1.258-.533zm3.828-3.46h1.203l4.157 10.809h-1.203l-4.157-10.808zm7.944 8.88h4.716V57h-6.036v-9.953h1.32v8.88zm5.68-2.693c0-.724.142-1.376.424-1.955a3.217 3.217 0 011.19-1.34c.51-.314 1.091-.471 1.743-.471 1.007 0 1.82.348 2.44 1.046.625.697.937 1.624.937 2.782v.089c0 .72-.139 1.367-.417 1.941a3.119 3.119 0 01-1.183 1.333c-.51.32-1.098.479-1.764.479-1.002 0-1.816-.349-2.44-1.046-.62-.697-.93-1.62-.93-2.769v-.089zm1.272.15c0 .821.189 1.48.567 1.976.383.497.893.745 1.531.745.643 0 1.153-.25 1.532-.752.378-.505.567-1.212.567-2.119 0-.81-.194-1.467-.581-1.968a1.825 1.825 0 00-1.531-.76c-.625 0-1.128.25-1.511.746-.383.497-.574 1.208-.574 2.133zm9.112.192l-.793.827V57h-1.264V46.5h1.264v6.35l.677-.813 2.304-2.434h1.538l-2.878 3.09L226.764 57h-1.484l-2.577-3.425zM232.301 57c-.073-.146-.132-.406-.178-.78-.588.611-1.29.917-2.105.917-.73 0-1.329-.205-1.798-.615a2.016 2.016 0 01-.698-1.573c0-.77.292-1.367.875-1.79.588-.43 1.413-.643 2.475-.643h1.231v-.581c0-.443-.133-.793-.397-1.053-.264-.264-.654-.397-1.169-.397-.451 0-.829.114-1.135.342-.305.228-.458.504-.458.827h-1.271c0-.369.13-.724.389-1.066.265-.346.62-.62 1.067-.82a3.62 3.62 0 011.483-.301c.853 0 1.52.214 2.003.642.483.424.734 1.01.752 1.757v3.404c0 .68.087 1.22.26 1.62V57h-1.326zm-2.099-.964a2.22 2.22 0 001.128-.308c.356-.205.613-.471.773-.8v-1.517h-.992c-1.549 0-2.324.454-2.324 1.36 0 .397.132.707.397.93.264.224.603.335 1.018.335zm6.522.964h-1.265V46.5h1.265V57zm3.404 0h-1.265v-7.397h1.265V57zm-1.367-9.358c0-.206.061-.379.184-.52.128-.141.315-.212.561-.212.246 0 .433.07.56.212a.745.745 0 01.192.52.721.721 0 01-.192.512c-.127.137-.314.205-.56.205-.246 0-.433-.068-.561-.205a.738.738 0 01-.184-.512zm7.704 7.396c0-.342-.13-.606-.39-.793-.255-.191-.704-.355-1.346-.492-.639-.137-1.147-.3-1.525-.492-.374-.192-.652-.42-.834-.684a1.648 1.648 0 01-.266-.943c0-.606.255-1.119.765-1.538.515-.42 1.171-.63 1.969-.63.838 0 1.517.217 2.037.65.524.433.786.987.786 1.661h-1.271c0-.346-.148-.645-.445-.895-.291-.25-.66-.376-1.107-.376-.46 0-.82.1-1.08.3a.948.948 0 00-.39.787c0 .305.121.535.362.69.242.155.677.303 1.306.444.634.142 1.146.31 1.538.506.392.196.682.433.868.711.192.274.287.609.287 1.005 0 .661-.264 1.192-.792 1.593-.529.396-1.215.595-2.058.595-.593 0-1.117-.105-1.572-.315a2.595 2.595 0 01-1.074-.875 2.147 2.147 0 01-.382-1.223h1.264c.023.424.192.76.506 1.011.319.246.738.37 1.258.37.478 0 .861-.096 1.148-.288.292-.196.438-.455.438-.779zm5.981 2.099c-1.002 0-1.818-.328-2.447-.985-.629-.66-.943-1.542-.943-2.645v-.233c0-.733.139-1.387.417-1.962a3.28 3.28 0 011.175-1.353 2.96 2.96 0 011.641-.492c.962 0 1.709.316 2.242.95.533.633.8 1.54.8 2.72v.527h-5.011c.019.73.23 1.32.636 1.77.41.447.93.67 1.559.67.446 0 .825-.09 1.134-.273a2.86 2.86 0 00.814-.725l.772.602c-.619.953-1.549 1.429-2.789 1.429zm-.157-6.631c-.51 0-.939.187-1.285.56-.346.37-.561.89-.643 1.559h3.705v-.096c-.036-.642-.209-1.139-.519-1.49-.31-.355-.729-.533-1.258-.533zm10.206 3.896h-4.17L257.389 57h-1.354l3.801-9.953h1.148L264.792 57h-1.347l-.95-2.598zm-3.773-1.08h3.383l-1.695-4.655-1.688 4.655zm13.46.062c0 1.125-.258 2.032-.773 2.72-.515.689-1.212 1.033-2.092 1.033-.897 0-1.604-.285-2.119-.855v3.562h-1.264v-10.24h1.155l.061.82c.515-.638 1.231-.957 2.147-.957.889 0 1.59.335 2.105 1.005.52.67.78 1.602.78 2.796v.116zm-1.265-.144c0-.834-.178-1.492-.533-1.975-.356-.483-.843-.725-1.463-.725-.766 0-1.34.34-1.723 1.019v3.534c.378.674.957 1.011 1.737 1.011.606 0 1.086-.239 1.442-.717.36-.483.54-1.199.54-2.147zm4.252 3.76h-1.265v-7.397h1.265V57zm-1.367-9.358c0-.206.061-.379.184-.52.128-.141.315-.212.561-.212.246 0 .433.07.56.212a.745.745 0 01.192.52.721.721 0 01-.192.512c-.127.137-.314.205-.56.205-.246 0-.433-.068-.561-.205a.738.738 0 01-.184-.512zm10.917 6.2c-.123 1.053-.513 1.866-1.169 2.44-.652.57-1.52.855-2.605.855-1.175 0-2.119-.422-2.83-1.265-.706-.843-1.059-1.971-1.059-3.384v-.957c0-.925.164-1.738.492-2.44.333-.702.802-1.24 1.408-1.614.606-.378 1.308-.567 2.106-.567 1.057 0 1.904.296 2.542.889.639.588 1.01 1.404 1.115 2.447h-1.32c-.114-.793-.362-1.367-.745-1.723-.378-.355-.909-.533-1.592-.533-.839 0-1.498.31-1.976.93-.474.62-.711 1.502-.711 2.645v.964c0 1.08.226 1.94.677 2.577.451.639 1.082.957 1.893.957.729 0 1.288-.164 1.675-.492.392-.332.652-.909.779-1.73h1.32zM287.692 57h-1.264V46.5h1.264V57zm3.405 0h-1.265v-7.397h1.265V57zm-1.368-9.358c0-.206.062-.379.185-.52.128-.141.315-.212.561-.212.246 0 .433.07.56.212a.745.745 0 01.192.52.721.721 0 01-.192.512c-.127.137-.314.205-.56.205-.246 0-.433-.068-.561-.205a.738.738 0 01-.185-.512zm6.467 9.495c-1.002 0-1.818-.328-2.447-.985-.629-.66-.943-1.542-.943-2.645v-.233c0-.733.139-1.387.417-1.962a3.28 3.28 0 011.175-1.353 2.96 2.96 0 011.641-.492c.962 0 1.709.316 2.242.95.533.633.8 1.54.8 2.72v.527h-5.011c.019.73.23 1.32.636 1.77.41.447.93.67 1.559.67.446 0 .825-.09 1.134-.273a2.86 2.86 0 00.814-.725l.772.602c-.619.953-1.549 1.429-2.789 1.429zm-.157-6.631c-.51 0-.939.187-1.285.56-.346.37-.561.89-.643 1.559h3.705v-.096c-.036-.642-.209-1.139-.519-1.49-.31-.355-.729-.533-1.258-.533zm5.708-.903l.041.93c.565-.71 1.303-1.066 2.215-1.066 1.563 0 2.351.882 2.365 2.645V57h-1.264v-4.895c-.005-.533-.128-.927-.37-1.182-.237-.255-.608-.383-1.114-.383-.41 0-.77.11-1.08.328a2.24 2.24 0 00-.725.861V57h-1.264v-7.397h1.196zm8.244-1.79v1.79h1.381v.978h-1.381v4.587c0 .296.062.52.185.67.123.146.332.219.629.219.146 0 .346-.028.601-.082V57a3.662 3.662 0 01-.97.137c-.566 0-.992-.171-1.279-.513-.287-.342-.43-.827-.43-1.456v-4.587h-1.347v-.978h1.347v-1.79h1.264z" fill="#9876AA"/><path d="M192.589 113.288h-3.336v-1.032h3.336v1.032zm5.715-.731l-4.519-1.771v-1.299l5.838 2.584v.998l-5.838 2.591v-1.312l4.519-1.791z" fill="#393"/><path d="M102.729 197.259l-.143 2.515h-.882l.007-3.274h1.018v.759zm2.297 9.741v-6.419h-1.169v-.977h1.169v-.759c0-.793.212-1.406.636-1.839.424-.433 1.023-.65 1.798-.65.292 0 .581.039.868.117l-.068 1.025a3.634 3.634 0 00-.684-.061c-.41 0-.727.12-.95.362-.223.237-.335.579-.335 1.025v.78h1.579v.977h-1.579V207h-1.265zm3.911-3.767c0-.724.141-1.376.423-1.955a3.226 3.226 0 011.19-1.34c.51-.314 1.091-.471 1.743-.471 1.007 0 1.821.348 2.44 1.046.625.697.937 1.624.937 2.782v.089c0 .72-.139 1.367-.417 1.941a3.117 3.117 0 01-1.183 1.333c-.51.319-1.098.479-1.763.479-1.003 0-1.816-.349-2.441-1.046-.62-.697-.929-1.62-.929-2.769v-.089zm1.271.151c0 .82.189 1.479.567 1.975.383.497.894.745 1.532.745.642 0 1.153-.25 1.531-.751.378-.506.567-1.213.567-2.12 0-.811-.193-1.467-.581-1.968-.383-.506-.893-.759-1.531-.759-.624 0-1.128.248-1.511.745s-.574 1.208-.574 2.133zm10.623-2.646a3.777 3.777 0 00-.622-.048c-.829 0-1.392.354-1.688 1.06V207h-1.265v-7.396h1.23l.021.854c.415-.661 1.002-.991 1.764-.991.246 0 .432.032.56.095v1.176zm2.358-1.134l.035.82c.542-.638 1.273-.957 2.194-.957 1.034 0 1.739.396 2.112 1.189.246-.355.565-.642.957-.861.397-.219.864-.328 1.402-.328 1.622 0 2.447.859 2.474 2.577V207h-1.264v-4.881c0-.529-.121-.923-.363-1.182-.241-.265-.647-.397-1.216-.397-.47 0-.86.141-1.169.424-.31.278-.49.654-.54 1.128V207h-1.272v-4.847c0-1.075-.526-1.613-1.579-1.613-.829 0-1.397.353-1.702 1.06v5.4h-1.265v-7.396h1.196zM138.844 207c-.073-.146-.132-.406-.178-.779-.588.61-1.29.916-2.105.916-.73 0-1.329-.205-1.798-.616a2.014 2.014 0 01-.698-1.572c0-.77.292-1.367.875-1.791.588-.428 1.413-.642 2.475-.642h1.231v-.581c0-.442-.133-.793-.397-1.053-.264-.264-.654-.397-1.169-.397-.451 0-.829.114-1.135.342-.305.228-.458.504-.458.827h-1.271c0-.369.13-.724.389-1.066.265-.346.62-.62 1.067-.82a3.604 3.604 0 011.483-.301c.852 0 1.52.214 2.003.642.483.424.734 1.01.752 1.757v3.405c0 .679.087 1.219.26 1.62V207h-1.326zm-2.099-.964a2.22 2.22 0 001.128-.307c.356-.206.613-.472.773-.8v-1.518h-.992c-1.549 0-2.324.454-2.324 1.36 0 .397.132.707.397.93.264.223.603.335 1.018.335zm6.863-8.224v1.792h1.381v.977h-1.381v4.587c0 .296.062.52.185.67.123.146.333.219.629.219.146 0 .346-.028.601-.082V207a3.667 3.667 0 01-.97.137c-.565 0-.991-.171-1.279-.513-.287-.342-.43-.827-.43-1.456v-4.587h-1.347v-.977h1.347v-1.792h1.264zm3.637-.553l-.143 2.515h-.882l.007-3.274h1.018v.759z" fill="#00F"/><path d="M429.759 50.3c0-.218.064-.4.191-.546.132-.146.328-.219.588-.219.26 0 .456.073.588.219a.767.767 0 01.205.547c0 .21-.068.385-.205.526-.132.141-.328.212-.588.212-.26 0-.456-.07-.588-.212a.758.758 0 01-.191-.526zm.239 8.682l-.718-.492c.429-.597.652-1.212.67-1.846v-1.141h1.238v.991c0 .46-.114.92-.342 1.381-.224.46-.506.83-.848 1.107z" fill="#393"/><path d="M69.061 225.625h2.584v13.508h-2.584v-1.039h1.32v-11.43h-1.32v-1.039zM325.909 112.96c0-1.03.137-2.019.41-2.967a8.682 8.682 0 011.238-2.584c.547-.775 1.114-1.321 1.702-1.64l.26.834c-.666.51-1.213 1.289-1.641 2.337-.424 1.049-.656 2.222-.697 3.521l-.007.581c0 1.759.321 3.286.964 4.58.387.775.847 1.381 1.381 1.818l-.26.773c-.606-.337-1.185-.902-1.737-1.695-1.075-1.55-1.613-3.402-1.613-5.558z" fill="#090"/></g><g clip-path="url(#clip2_1_197)"><path d="M30 30h440v240H30V30z" fill="#fff"/><path d="M42.852 54.437c0-.42-.148-.773-.445-1.06-.291-.287-.786-.547-1.483-.78-.97-.296-1.68-.68-2.126-1.155-.442-.478-.663-1.084-.663-1.818 0-.747.216-1.36.65-1.839.437-.478 1.036-.763 1.797-.854v-1.497h1.019v1.504c.765.104 1.36.426 1.784.963.428.538.642 1.274.642 2.208H42.77c0-.642-.152-1.153-.457-1.53-.306-.38-.718-.568-1.238-.568-.542 0-.957.141-1.244.424-.287.278-.43.667-.43 1.168 0 .465.15.837.45 1.115.306.273.805.524 1.498.752.697.223 1.24.471 1.627.745.392.269.679.583.86.943.188.36.281.782.281 1.265 0 .77-.232 1.39-.697 1.86-.46.469-1.107.747-1.941.833v1.306h-1.012v-1.306c-.848-.077-1.513-.378-1.996-.902-.479-.529-.718-1.244-.718-2.147h1.265c0 .634.166 1.121.499 1.463.332.342.804.513 1.415.513.597 0 1.066-.144 1.408-.43.342-.288.513-.68.513-1.176zm5.933 1.668c.451 0 .846-.137 1.183-.41.337-.274.524-.616.56-1.026h1.197a2.293 2.293 0 01-.438 1.21 2.875 2.875 0 01-1.08.916c-.447.228-.92.342-1.422.342-1.007 0-1.81-.335-2.406-1.005-.593-.675-.889-1.595-.889-2.762v-.212c0-.72.132-1.36.397-1.92a3.02 3.02 0 011.135-1.306c.496-.31 1.082-.465 1.756-.465.83 0 1.518.248 2.065.745.551.497.845 1.141.882 1.934h-1.197c-.036-.478-.218-.87-.547-1.175-.323-.31-.724-.465-1.203-.465-.642 0-1.141.232-1.497.697-.35.46-.526 1.128-.526 2.003v.24c0 .852.175 1.508.526 1.968.351.46.852.69 1.504.69zm5.736.895h-1.265V46.5h1.264V57zm3.404 0H56.66v-7.397h1.265V57zm-1.367-9.358c0-.206.061-.379.184-.52.128-.141.315-.212.56-.212.247 0 .434.07.561.212a.747.747 0 01.192.52.722.722 0 01-.192.512c-.127.137-.314.205-.56.205-.246 0-.433-.068-.56-.205a.738.738 0 01-.185-.512zm6.466 9.495c-1.002 0-1.818-.328-2.447-.985-.629-.66-.943-1.542-.943-2.645v-.233c0-.733.139-1.387.417-1.962a3.283 3.283 0 011.176-1.353 2.958 2.958 0 011.64-.492c.962 0 1.71.316 2.242.95.534.633.8 1.54.8 2.72v.527H60.9c.018.73.23 1.32.635 1.77.41.447.93.67 1.559.67.446 0 .825-.09 1.135-.273.31-.182.58-.424.813-.725l.773.602c-.62.953-1.55 1.429-2.79 1.429zm-.157-6.631c-.51 0-.939.187-1.285.56-.346.37-.56.89-.642 1.559h3.704v-.096c-.036-.642-.21-1.139-.519-1.49-.31-.355-.73-.533-1.258-.533zm5.708-.903l.041.93c.565-.71 1.304-1.066 2.215-1.066 1.563 0 2.352.882 2.365 2.645V57h-1.264v-4.895c-.005-.533-.128-.927-.37-1.182-.236-.255-.608-.383-1.114-.383-.41 0-.77.11-1.08.328-.31.219-.551.506-.724.861V57h-1.265v-7.397h1.196zm8.244-1.79v1.79H78.2v.978h-1.38v4.587c0 .296.06.52.184.67.123.146.333.219.629.219.146 0 .346-.028.601-.082V57a3.669 3.669 0 01-.97.137c-.565 0-.992-.171-1.279-.513-.287-.342-.43-.827-.43-1.456v-4.587h-1.347v-.978h1.347v-1.79h1.264z" fill="#008"/><path d="M119 49.132l.038.863c.524-.66 1.21-.99 2.056-.99 1.452 0 2.184.819 2.197 2.456V56h-1.175v-4.545c-.004-.495-.118-.861-.343-1.098-.22-.237-.565-.355-1.034-.355-.381 0-.715.101-1.003.304a2.07 2.07 0 00-.673.8V56h-1.174v-6.868H119zm8.912 6.995c-.931 0-1.689-.305-2.273-.914-.584-.614-.876-1.433-.876-2.457v-.215c0-.682.129-1.289.387-1.822a3.057 3.057 0 011.092-1.257c.47-.305.978-.457 1.524-.457.893 0 1.587.294 2.082.882.495.588.742 1.43.742 2.527v.488h-4.652c.016.677.213 1.225.59 1.644.381.415.863.623 1.447.623.415 0 .766-.085 1.054-.254.288-.17.539-.394.755-.673l.717.558c-.575.885-1.438 1.327-2.589 1.327zm-.146-6.157c-.474 0-.872.173-1.194.52-.321.343-.52.825-.596 1.447h3.44v-.088c-.034-.597-.195-1.058-.482-1.384-.288-.33-.677-.495-1.168-.495zm10.27 4.411l1.32-5.25h1.175l-2 6.869h-.952l-1.669-5.205L134.285 56h-.952l-1.994-6.868h1.168l1.352 5.141 1.6-5.141h.946l1.631 5.25z" fill="#000"/><path d="M365.909 52.96c0-1.03.137-2.019.41-2.967a8.678 8.678 0 011.238-2.584c.547-.775 1.114-1.321 1.702-1.64l.26.834c-.666.51-1.213 1.29-1.641 2.337-.424 1.049-.656 2.222-.697 3.52l-.007.582c0 1.76.321 3.286.964 4.58.387.775.847 1.38 1.381 1.818l-.26.773c-.606-.337-1.185-.903-1.737-1.695-1.075-1.55-1.613-3.402-1.613-5.558zm58.967.068c0 1.017-.134 1.992-.403 2.926a8.566 8.566 0 01-1.224 2.577c-.547.789-1.121 1.35-1.723 1.682l-.266-.773c.702-.537 1.264-1.371 1.688-2.502.429-1.134.647-2.392.656-3.773v-.219c0-.957-.1-1.845-.3-2.666a8.934 8.934 0 00-.841-2.215c-.356-.651-.757-1.16-1.203-1.524l.266-.772c.602.332 1.174.888 1.716 1.668a8.544 8.544 0 011.224 2.577c.273.938.41 1.943.41 3.014z" fill="#090"/><path d="M42.852 114.437c0-.42-.148-.773-.445-1.06-.291-.287-.786-.547-1.483-.779-.97-.297-1.68-.682-2.126-1.156-.442-.478-.663-1.084-.663-1.818 0-.747.216-1.36.65-1.839.437-.478 1.036-.763 1.797-.854v-1.497h1.019v1.504c.765.104 1.36.426 1.784.963.428.538.642 1.274.642 2.208H42.77c0-.642-.152-1.153-.457-1.531-.306-.378-.718-.567-1.238-.567-.542 0-.957.141-1.244.424-.287.278-.43.667-.43 1.169 0 .464.15.836.45 1.114.306.273.805.524 1.498.752.697.223 1.24.471 1.627.745.392.269.679.583.86.943.188.36.281.782.281 1.265 0 .77-.232 1.39-.697 1.859-.46.47-1.107.748-1.941.834v1.306h-1.012v-1.306c-.848-.077-1.513-.378-1.996-.902-.479-.529-.718-1.244-.718-2.147h1.265c0 .634.166 1.121.499 1.463.332.342.804.513 1.415.513.597 0 1.066-.144 1.408-.431.342-.287.513-.679.513-1.175zm6.542-3.699a3.78 3.78 0 00-.622-.048c-.83 0-1.393.354-1.689 1.06V117h-1.265v-7.396h1.23l.021.854c.415-.661 1.003-.991 1.764-.991.246 0 .433.032.56.095v1.176zm4.101 6.399c-1.002 0-1.818-.328-2.447-.985-.63-.66-.944-1.542-.944-2.645v-.233c0-.733.14-1.387.418-1.962a3.29 3.29 0 011.175-1.353 2.958 2.958 0 011.64-.492c.962 0 1.71.317 2.243.95.533.633.8 1.54.8 2.721v.526h-5.01c.017.729.23 1.319.635 1.771.41.446.93.669 1.558.669.447 0 .825-.091 1.135-.273.31-.182.581-.424.814-.725l.772.602c-.62.952-1.55 1.429-2.789 1.429zm-.157-6.631c-.51 0-.939.187-1.285.56-.347.37-.56.889-.643 1.559h3.705v-.096c-.036-.642-.21-1.139-.52-1.49-.31-.355-.728-.533-1.257-.533zm8.818 4.532c0-.342-.13-.606-.39-.793-.255-.191-.703-.355-1.346-.492-.638-.137-1.146-.301-1.525-.492-.373-.192-.651-.42-.834-.684a1.65 1.65 0 01-.266-.943c0-.606.255-1.119.765-1.538.515-.42 1.172-.629 1.97-.629.838 0 1.517.216 2.036.649.524.433.786.987.786 1.661h-1.27c0-.346-.15-.645-.445-.895-.292-.251-.661-.376-1.108-.376-.46 0-.82.1-1.08.301-.26.2-.39.462-.39.786 0 .305.121.535.363.69.241.155.677.303 1.306.445.633.141 1.146.309 1.538.505.392.196.68.433.868.711.191.274.287.609.287 1.005 0 .661-.264 1.192-.793 1.593-.529.396-1.215.595-2.058.595-.592 0-1.116-.105-1.572-.315a2.585 2.585 0 01-1.073-.875 2.145 2.145 0 01-.383-1.223h1.265c.022.423.191.761.505 1.011.32.246.739.369 1.258.369.479 0 .862-.095 1.149-.287.291-.196.437-.455.437-.779zm9.16-1.654c0 1.125-.257 2.032-.772 2.72-.515.689-1.212 1.033-2.092 1.033-.898 0-1.604-.285-2.119-.855v3.562h-1.265v-10.24h1.156l.061.82c.515-.638 1.23-.957 2.147-.957.888 0 1.59.335 2.105 1.005.52.67.78 1.602.78 2.796v.116zm-1.264-.144c0-.834-.178-1.492-.533-1.975-.356-.483-.844-.725-1.463-.725-.766 0-1.34.34-1.723 1.019v3.534c.378.674.957 1.011 1.736 1.011.606 0 1.087-.239 1.443-.717.36-.483.54-1.199.54-2.147zm2.543-.007c0-.724.141-1.376.424-1.955.287-.578.683-1.025 1.189-1.34.51-.314 1.091-.471 1.743-.471 1.007 0 1.82.348 2.44 1.046.625.697.937 1.624.937 2.782v.089c0 .72-.139 1.367-.417 1.941a3.112 3.112 0 01-1.183 1.333c-.51.319-1.098.479-1.763.479-1.003 0-1.816-.349-2.44-1.046-.62-.697-.93-1.62-.93-2.769v-.089zm1.271.151c0 .82.19 1.479.568 1.975.382.497.893.745 1.53.745.643 0 1.154-.25 1.532-.751.378-.506.568-1.213.568-2.12 0-.811-.194-1.467-.582-1.968-.382-.506-.893-.759-1.53-.759-.625 0-1.129.248-1.512.745-.382.497-.574 1.208-.574 2.133zm8.244-3.78l.041.929c.566-.711 1.304-1.066 2.215-1.066 1.563 0 2.352.882 2.365 2.645V117h-1.264v-4.895c-.005-.533-.128-.927-.37-1.182-.236-.255-.608-.383-1.114-.383-.41 0-.77.109-1.08.328-.31.219-.551.506-.724.861V117h-1.265v-7.396h1.196zm10.835 5.434c0-.342-.13-.606-.39-.793-.255-.191-.703-.355-1.346-.492-.638-.137-1.146-.301-1.524-.492-.374-.192-.652-.42-.834-.684a1.65 1.65 0 01-.267-.943c0-.606.255-1.119.766-1.538.515-.42 1.17-.629 1.968-.629.839 0 1.518.216 2.038.649.524.433.786.987.786 1.661H92.87c0-.346-.148-.645-.444-.895-.292-.251-.661-.376-1.108-.376-.46 0-.82.1-1.08.301-.26.2-.39.462-.39.786 0 .305.121.535.363.69.242.155.677.303 1.306.445.633.141 1.146.309 1.538.505.392.196.681.433.868.711.191.274.287.609.287 1.005 0 .661-.264 1.192-.793 1.593-.529.396-1.215.595-2.058.595-.592 0-1.116-.105-1.572-.315a2.584 2.584 0 01-1.073-.875 2.145 2.145 0 01-.383-1.223h1.265c.022.423.191.761.506 1.011.319.246.738.369 1.257.369.479 0 .862-.095 1.149-.287.291-.196.437-.455.437-.779zm5.982 2.099c-1.003 0-1.819-.328-2.448-.985-.628-.66-.943-1.542-.943-2.645v-.233c0-.733.14-1.387.417-1.962a3.29 3.29 0 011.176-1.353 2.959 2.959 0 011.64-.492c.962 0 1.71.317 2.243.95.533.633.8 1.54.8 2.721v.526h-5.011c.018.729.23 1.319.635 1.771.41.446.93.669 1.56.669.446 0 .824-.091 1.134-.273.31-.182.581-.424.813-.725l.773.602c-.62.952-1.55 1.429-2.79 1.429zm-.158-6.631c-.51 0-.938.187-1.285.56-.346.37-.56.889-.642 1.559h3.705v-.096c-.037-.642-.21-1.139-.52-1.49-.31-.355-.729-.533-1.258-.533zm40.083 3.931c0-.42-.149-.773-.445-1.06-.291-.287-.786-.547-1.483-.779-.971-.297-1.68-.682-2.126-1.156-.442-.478-.663-1.084-.663-1.818 0-.747.216-1.36.649-1.839.438-.478 1.037-.763 1.798-.854v-1.497h1.019v1.504c.765.104 1.36.426 1.784.963.428.538.642 1.274.642 2.208h-1.257c0-.642-.153-1.153-.458-1.531-.306-.378-.718-.567-1.238-.567-.542 0-.957.141-1.244.424-.287.278-.431.667-.431 1.169 0 .464.151.836.452 1.114.305.273.804.524 1.497.752.697.223 1.239.471 1.627.745.392.269.679.583.861.943.187.36.28.782.28 1.265 0 .77-.232 1.39-.697 1.859-.46.47-1.107.748-1.941.834v1.306h-1.012v-1.306c-.848-.077-1.513-.378-1.996-.902-.479-.529-.718-1.244-.718-2.147h1.265c0 .634.166 1.121.499 1.463.332.342.804.513 1.415.513.597 0 1.066-.144 1.408-.431.342-.287.513-.679.513-1.175zm5.933 1.667a1.82 1.82 0 001.183-.41 1.44 1.44 0 00.56-1.025h1.197a2.295 2.295 0 01-.438 1.21 2.876 2.876 0 01-1.08.916 3.087 3.087 0 01-1.422.342c-1.007 0-1.809-.335-2.406-1.005-.593-.675-.889-1.595-.889-2.762v-.212c0-.72.132-1.36.397-1.921.264-.56.642-.995 1.134-1.305.497-.31 1.083-.465 1.757-.465.83 0 1.518.248 2.065.745.551.497.845 1.142.882 1.934h-1.197c-.036-.478-.218-.87-.547-1.175-.323-.31-.724-.465-1.203-.465-.642 0-1.141.232-1.497.697-.351.46-.526 1.128-.526 2.003v.239c0 .853.175 1.509.526 1.969.351.46.852.69 1.504.69zm5.736.896h-1.265v-10.5h1.265V117zm3.404 0h-1.265v-7.396h1.265V117zm-1.367-9.358c0-.205.061-.379.184-.52.128-.141.315-.212.561-.212.246 0 .433.071.56.212a.746.746 0 01.192.52.718.718 0 01-.192.512c-.127.137-.314.205-.56.205-.246 0-.433-.068-.561-.205a.735.735 0 01-.184-.512zm6.466 9.495c-1.002 0-1.818-.328-2.447-.985-.629-.66-.943-1.542-.943-2.645v-.233c0-.733.139-1.387.417-1.962a3.281 3.281 0 011.176-1.353 2.954 2.954 0 011.64-.492c.962 0 1.709.317 2.242.95.534.633.8 1.54.8 2.721v.526h-5.011c.019.729.231 1.319.636 1.771.41.446.93.669 1.559.669.446 0 .825-.091 1.135-.273a2.85 2.85 0 00.813-.725l.772.602c-.619.952-1.549 1.429-2.789 1.429zm-.157-6.631c-.51 0-.939.187-1.285.56-.346.37-.561.889-.643 1.559h3.706v-.096c-.037-.642-.21-1.139-.52-1.49-.31-.355-.729-.533-1.258-.533zm5.708-.902l.041.929c.565-.711 1.304-1.066 2.215-1.066 1.563 0 2.352.882 2.365 2.645V117h-1.264v-4.895c-.005-.533-.128-.927-.37-1.182-.236-.255-.608-.383-1.114-.383-.41 0-.77.109-1.08.328-.31.219-.551.506-.724.861V117h-1.265v-7.396h1.196zm8.244-1.792v1.792h1.381v.977h-1.381v4.587c0 .296.062.52.185.67.123.146.333.219.629.219.146 0 .346-.028.601-.082V117a3.667 3.667 0 01-.97.137c-.565 0-.992-.171-1.279-.513-.287-.342-.43-.827-.43-1.456v-4.587h-1.347v-.977h1.347v-1.792h1.264z" fill="#008"/><path d="M206.381 117v-6.419h-1.169v-.977h1.169v-.629c0-.825.235-1.468.704-1.928.474-.46 1.142-.691 2.003-.691.51 0 1.155.139 1.934.417l-.211 1.067c-.57-.228-1.112-.342-1.627-.342-.543 0-.935.123-1.176.369-.237.242-.356.606-.356 1.094v.643h1.511v.977h-1.511V117h-1.271zm5.27 0h-1.271v-7.396h1.271V117zm3.432 0h-1.265v-10.5h1.265V117zm5.1.137c-1.003 0-1.819-.328-2.448-.985-.629-.66-.943-1.542-.943-2.645v-.233c0-.733.139-1.387.417-1.962a3.288 3.288 0 011.176-1.353 2.96 2.96 0 011.64-.492c.962 0 1.709.317 2.243.95.533.633.799 1.54.799 2.721v.526h-5.01c.018.729.23 1.319.635 1.771.411.446.93.669 1.559.669.447 0 .825-.091 1.135-.273.31-.182.581-.424.813-.725l.773.602c-.62.952-1.55 1.429-2.789 1.429zm-.158-6.631c-.51 0-.938.187-1.285.56-.346.37-.56.889-.642 1.559h3.705v-.096c-.037-.642-.21-1.139-.52-1.49-.31-.355-.729-.533-1.258-.533zm8.819 4.532c0-.342-.13-.606-.39-.793-.255-.191-.704-.355-1.347-.492-.638-.137-1.146-.301-1.524-.492-.374-.192-.652-.42-.834-.684a1.648 1.648 0 01-.267-.943c0-.606.256-1.119.766-1.538.515-.42 1.171-.629 1.969-.629.838 0 1.517.216 2.037.649.524.433.786.987.786 1.661h-1.271c0-.346-.149-.645-.445-.895-.291-.251-.661-.376-1.107-.376-.46 0-.821.1-1.08.301-.26.2-.39.462-.39.786 0 .305.121.535.362.69.242.155.677.303 1.306.445.634.141 1.146.309 1.538.505.392.196.681.433.868.711.192.274.287.609.287 1.005 0 .661-.264 1.192-.793 1.593-.528.396-1.214.595-2.057.595-.593 0-1.117-.105-1.572-.315a2.587 2.587 0 01-1.074-.875 2.146 2.146 0 01-.383-1.223h1.265c.023.423.192.761.506 1.011.319.246.738.369 1.258.369.478 0 .861-.095 1.148-.287.292-.196.438-.455.438-.779zm32.805-1.798c0-1.135.269-2.046.807-2.734.538-.693 1.242-1.039 2.112-1.039.866 0 1.552.296 2.058.888V106.5h1.265V117h-1.162l-.062-.793c-.506.62-1.21.93-2.112.93-.857 0-1.557-.351-2.099-1.053-.538-.702-.807-1.618-.807-2.748v-.096zm1.265.144c0 .838.173 1.495.52 1.969.346.473.824.71 1.435.71.802 0 1.388-.36 1.757-1.08v-3.397c-.378-.697-.959-1.046-1.743-1.046-.62 0-1.103.239-1.449.718-.347.478-.52 1.187-.52 2.126zm6.61-.151c0-.724.142-1.376.424-1.955a3.226 3.226 0 011.19-1.34c.51-.314 1.091-.471 1.743-.471 1.007 0 1.82.348 2.44 1.046.625.697.937 1.624.937 2.782v.089c0 .72-.139 1.367-.417 1.941a3.117 3.117 0 01-1.183 1.333c-.51.319-1.098.479-1.763.479-1.003 0-1.817-.349-2.441-1.046-.62-.697-.93-1.62-.93-2.769v-.089zm1.272.151c0 .82.189 1.479.567 1.975.383.497.894.745 1.532.745.642 0 1.153-.25 1.531-.751.378-.506.567-1.213.567-2.12 0-.811-.194-1.467-.581-1.968-.383-.506-.893-.759-1.531-.759-.624 0-1.128.248-1.511.745s-.574 1.208-.574 2.133zm13.597 1.873l1.421-5.653h1.265L284.926 117H283.9l-1.797-5.605-1.75 5.605h-1.026l-2.146-7.396h1.257l1.457 5.537 1.722-5.537h1.019l1.757 5.653zm5.174-5.653l.041.929c.566-.711 1.304-1.066 2.215-1.066 1.563 0 2.352.882 2.365 2.645V117h-1.264v-4.895c-.005-.533-.128-.927-.369-1.182-.237-.255-.609-.383-1.115-.383-.41 0-.77.109-1.08.328-.31.219-.551.506-.724.861V117h-1.265v-7.396h1.196zM297.47 117h-1.265v-10.5h1.265V117zm1.695-3.767c0-.724.141-1.376.424-1.955.287-.578.683-1.025 1.189-1.34.511-.314 1.092-.471 1.743-.471 1.008 0 1.821.348 2.441 1.046.624.697.936 1.624.936 2.782v.089c0 .72-.139 1.367-.417 1.941a3.109 3.109 0 01-1.182 1.333c-.511.319-1.098.479-1.764.479-1.002 0-1.816-.349-2.44-1.046-.62-.697-.93-1.62-.93-2.769v-.089zm1.272.151c0 .82.189 1.479.567 1.975.383.497.893.745 1.531.745.643 0 1.153-.25 1.531-.751.379-.506.568-1.213.568-2.12 0-.811-.194-1.467-.581-1.968-.383-.506-.893-.759-1.532-.759-.624 0-1.127.248-1.51.745s-.574 1.208-.574 2.133zM312.051 117c-.073-.146-.132-.406-.178-.779-.588.61-1.29.916-2.105.916-.73 0-1.329-.205-1.798-.616a2.014 2.014 0 01-.698-1.572c0-.77.292-1.367.875-1.791.588-.428 1.413-.642 2.475-.642h1.231v-.581c0-.442-.133-.793-.397-1.053-.264-.264-.654-.397-1.169-.397-.451 0-.829.114-1.135.342-.305.228-.458.504-.458.827h-1.271c0-.369.13-.724.389-1.066.265-.346.62-.62 1.067-.82a3.604 3.604 0 011.483-.301c.853 0 1.52.214 2.003.642.483.424.734 1.01.752 1.757v3.405c0 .679.087 1.219.26 1.62V117h-1.326zm-2.099-.964a2.22 2.22 0 001.128-.307c.356-.206.613-.472.773-.8v-1.518h-.992c-1.549 0-2.324.454-2.324 1.36 0 .397.132.707.397.93.264.223.603.335 1.018.335zm4.84-2.796c0-1.135.269-2.046.807-2.734.537-.693 1.241-1.039 2.112-1.039.866 0 1.552.296 2.058.888V106.5h1.264V117h-1.162l-.061-.793c-.506.62-1.21.93-2.113.93-.857 0-1.556-.351-2.098-1.053-.538-.702-.807-1.618-.807-2.748v-.096zm1.265.144c0 .838.173 1.495.519 1.969.347.473.825.71 1.436.71.802 0 1.387-.36 1.757-1.08v-3.397c-.379-.697-.96-1.046-1.744-1.046-.619 0-1.102.239-1.449.718-.346.478-.519 1.187-.519 2.126z" fill="#004000"/><path d="M74.852 144.437c0-.42-.148-.773-.445-1.06-.291-.287-.786-.547-1.483-.779-.97-.297-1.68-.682-2.126-1.156-.442-.478-.663-1.084-.663-1.818 0-.747.216-1.36.65-1.839.437-.478 1.036-.763 1.797-.854v-1.497h1.019v1.504c.765.104 1.36.426 1.784.963.428.538.642 1.274.642 2.208H74.77c0-.642-.152-1.153-.458-1.531-.305-.378-.717-.567-1.237-.567-.542 0-.957.141-1.244.424-.287.278-.43.667-.43 1.169 0 .464.15.836.45 1.114.306.273.805.524 1.498.752.697.223 1.24.471 1.627.745.392.269.679.583.86.943.188.36.281.782.281 1.265 0 .77-.232 1.39-.697 1.859-.46.47-1.108.748-1.941.834v1.306h-1.012v-1.306c-.848-.077-1.513-.378-1.996-.902-.479-.529-.718-1.244-.718-2.147h1.265c0 .634.166 1.121.499 1.463.332.342.804.513 1.415.513.597 0 1.066-.144 1.408-.431.342-.287.513-.679.513-1.175zm9.214-1.053c0 1.125-.257 2.032-.772 2.72-.515.689-1.212 1.033-2.092 1.033-.898 0-1.604-.285-2.119-.855v3.562h-1.265v-10.24h1.156l.061.82c.515-.638 1.23-.957 2.147-.957.888 0 1.59.335 2.105 1.005.52.67.78 1.602.78 2.796v.116zm-1.264-.144c0-.834-.178-1.492-.533-1.975-.356-.483-.844-.725-1.463-.725-.766 0-1.34.34-1.723 1.019v3.534c.378.674.957 1.011 1.736 1.011.606 0 1.087-.239 1.443-.717.36-.483.54-1.199.54-2.147zm6.453-2.502a3.779 3.779 0 00-.622-.048c-.83 0-1.392.354-1.689 1.06V147H85.68v-7.396h1.23l.02.854c.415-.661 1.003-.991 1.764-.991.246 0 .433.032.56.095v1.176zm.697 2.495c0-.724.141-1.376.424-1.955a3.226 3.226 0 011.19-1.34c.51-.314 1.09-.471 1.743-.471 1.007 0 1.82.348 2.44 1.046.624.697.937 1.624.937 2.782v.089c0 .72-.14 1.367-.417 1.941a3.113 3.113 0 01-1.183 1.333c-.51.319-1.098.479-1.764.479-1.002 0-1.816-.349-2.44-1.046-.62-.697-.93-1.62-.93-2.769v-.089zm1.272.151c0 .82.189 1.479.567 1.975.383.497.893.745 1.531.745.643 0 1.153-.25 1.531-.751.379-.506.568-1.213.568-2.12 0-.811-.194-1.467-.581-1.968-.383-.506-.893-.759-1.531-.759-.625 0-1.128.248-1.511.745s-.574 1.208-.574 2.133zm8.353-3.78v8.25c0 1.422-.645 2.133-1.934 2.133a2.35 2.35 0 01-.773-.123v-1.011c.146.036.337.054.574.054.283 0 .497-.077.643-.232.15-.151.225-.415.225-.793v-8.278h1.265zm-1.394-1.962c0-.201.061-.372.184-.513.128-.146.312-.219.554-.219.246 0 .433.071.56.212a.748.748 0 01.192.52.72.72 0 01-.192.512c-.127.137-.314.205-.56.205-.246 0-.43-.068-.554-.205a.735.735 0 01-.184-.512zm6.507 9.495c-1.002 0-1.818-.328-2.447-.985-.629-.66-.943-1.542-.943-2.645v-.233c0-.733.139-1.387.417-1.962a3.281 3.281 0 011.176-1.353 2.954 2.954 0 011.64-.492c.962 0 1.709.317 2.242.95.534.633.8 1.54.8 2.721v.526h-5.011c.019.729.231 1.319.636 1.771.41.446.93.669 1.559.669.446 0 .825-.091 1.135-.273a2.85 2.85 0 00.813-.725l.772.602c-.619.952-1.549 1.429-2.789 1.429zm-.157-6.631c-.51 0-.939.187-1.285.56-.346.37-.56.889-.643 1.559h3.706v-.096c-.037-.642-.21-1.139-.52-1.49-.31-.355-.729-.533-1.258-.533zm7.479 5.598c.451 0 .845-.136 1.182-.41.338-.273.524-.615.561-1.025h1.196a2.294 2.294 0 01-.437 1.21 2.876 2.876 0 01-1.08.916 3.087 3.087 0 01-1.422.342c-1.007 0-1.81-.335-2.407-1.005-.592-.675-.888-1.595-.888-2.762v-.212c0-.72.132-1.36.396-1.921.265-.56.643-.995 1.135-1.305.497-.31 1.082-.465 1.757-.465.829 0 1.517.248 2.064.745.552.497.846 1.142.882 1.934h-1.196c-.037-.478-.219-.87-.547-1.175-.324-.31-.725-.465-1.203-.465-.643 0-1.142.232-1.497.697-.351.46-.527 1.128-.527 2.003v.239c0 .853.176 1.509.527 1.969.351.46.852.69 1.504.69zm6.077-8.292v1.792h1.381v.977h-1.381v4.587c0 .296.061.52.184.67.123.146.333.219.629.219.146 0 .347-.028.602-.082V147a3.674 3.674 0 01-.971.137c-.565 0-.991-.171-1.278-.513-.287-.342-.431-.827-.431-1.456v-4.587h-1.346v-.977h1.346v-1.792h1.265zM122.56 147h-1.313v-9.953h1.313V147zm1.9-3.76c0-1.135.269-2.046.807-2.734.537-.693 1.241-1.039 2.112-1.039.866 0 1.552.296 2.058.888V136.5h1.264V147h-1.162l-.061-.793c-.506.62-1.21.93-2.113.93-.857 0-1.556-.351-2.098-1.053-.538-.702-.807-1.618-.807-2.748v-.096zm1.265.144c0 .838.173 1.495.519 1.969.346.473.825.71 1.436.71.802 0 1.387-.36 1.757-1.08v-3.397c-.379-.697-.96-1.046-1.744-1.046-.619 0-1.103.239-1.449.718-.346.478-.519 1.187-.519 2.126z" fill="#008"/><path d="M72.575 166.664H71.27v11.43h1.306v1.039h-2.577v-13.508h2.577v1.039z" fill="#090"/><path d="M179.74 201.436h-5.701v-1.101h5.701v1.101zm0 2.836h-5.701v-1.093h5.701v1.093zm6.378-1.715l-4.518-1.771v-1.299l5.838 2.584v.998l-5.838 2.591v-1.312l4.518-1.791zm59.798 6.425l-.718-.492c.429-.597.652-1.212.67-1.845v-1.142h1.237v.991c0 .46-.113.921-.341 1.381-.224.46-.506.829-.848 1.107z" fill="#393"/><path d="M40.876 263.028c0 1.017-.134 1.992-.403 2.926a8.53 8.53 0 01-1.224 2.577c-.547.789-1.121 1.349-1.723 1.682l-.266-.773c.702-.537 1.264-1.371 1.688-2.502.429-1.134.647-2.392.657-3.773v-.219c0-.957-.1-1.845-.301-2.666a8.918 8.918 0 00-.841-2.215c-.356-.651-.757-1.159-1.203-1.524l.266-.772c.602.332 1.174.888 1.716 1.668a8.543 8.543 0 011.224 2.577c.273.938.41 1.943.41 3.014z" fill="#090"/><path d="M107.74 51.435h-5.701v-1.1h5.701v1.1zm0 2.837h-5.701V53.18h5.701v1.093z" fill="#393"/><path d="M378.852 54.437c0-.42-.149-.773-.445-1.06-.291-.287-.786-.547-1.483-.78-.971-.296-1.68-.68-2.126-1.155-.442-.478-.663-1.084-.663-1.818 0-.747.216-1.36.649-1.839.438-.478 1.037-.763 1.798-.854v-1.497h1.019v1.504c.765.104 1.36.426 1.784.963.428.538.642 1.274.642 2.208h-1.257c0-.642-.153-1.153-.458-1.53-.306-.38-.718-.568-1.238-.568-.542 0-.957.141-1.244.424-.287.278-.431.667-.431 1.168 0 .465.151.837.452 1.115.305.273.804.524 1.497.752.697.223 1.239.471 1.627.745.392.269.679.583.861.943.187.36.28.782.28 1.265 0 .77-.232 1.39-.697 1.86-.46.469-1.107.747-1.941.833v1.306h-1.012v-1.306c-.848-.077-1.513-.378-1.996-.902-.479-.529-.718-1.244-.718-2.147h1.265c0 .634.166 1.121.499 1.463.332.342.804.513 1.415.513.597 0 1.066-.144 1.408-.43.342-.288.513-.68.513-1.176zm4.682-6.624v1.79h1.381v.978h-1.381v4.587c0 .296.062.52.185.67.123.146.332.219.629.219.145 0 .346-.028.601-.082V57a3.662 3.662 0 01-.97.137c-.566 0-.992-.171-1.279-.513-.287-.342-.43-.827-.43-1.456v-4.587h-1.347v-.978h1.347v-1.79h1.264zm2.393 5.42c0-.724.141-1.376.424-1.955.287-.578.683-1.025 1.189-1.34.51-.314 1.092-.471 1.743-.471 1.007 0 1.821.348 2.441 1.046.624.697.936 1.624.936 2.782v.089c0 .72-.139 1.367-.417 1.941a3.11 3.11 0 01-1.182 1.333c-.511.32-1.099.479-1.764.479-1.003 0-1.816-.349-2.441-1.046-.619-.697-.929-1.62-.929-2.769v-.089zm1.271.15c0 .821.189 1.48.568 1.976.382.497.893.745 1.531.745.642 0 1.153-.25 1.531-.752.378-.505.568-1.212.568-2.119 0-.81-.194-1.467-.582-1.968-.382-.506-.893-.76-1.531-.76-.624 0-1.128.25-1.511.746-.382.497-.574 1.208-.574 2.133zm9.113.192l-.793.827V57h-1.265V46.5h1.265v6.35l.676-.813 2.304-2.434h1.538l-2.878 3.09L400.371 57h-1.483l-2.577-3.425zm7.963 3.562c-1.002 0-1.818-.328-2.447-.985-.629-.66-.943-1.542-.943-2.645v-.233c0-.733.139-1.387.417-1.962a3.275 3.275 0 011.176-1.353 2.954 2.954 0 011.64-.492c.962 0 1.709.316 2.242.95.534.633.8 1.54.8 2.72v.527h-5.011c.019.73.231 1.32.636 1.77.41.447.93.67 1.559.67.446 0 .825-.09 1.135-.273a2.85 2.85 0 00.813-.725l.772.602c-.619.953-1.549 1.429-2.789 1.429zm-.157-6.631c-.51 0-.939.187-1.285.56-.346.37-.561.89-.643 1.559h3.706v-.096c-.037-.642-.21-1.139-.52-1.49-.31-.355-.729-.533-1.258-.533zm5.708-.903l.041.93c.565-.71 1.304-1.066 2.215-1.066 1.563 0 2.352.882 2.365 2.645V57h-1.264v-4.895c-.005-.533-.128-.927-.37-1.182-.236-.255-.608-.383-1.114-.383-.41 0-.77.11-1.08.328-.31.219-.551.506-.724.861V57h-1.265v-7.397h1.196z" fill="#008"/><path d="M123.74 111.436h-5.701v-1.101h5.701v1.101zm0 2.836h-5.701v-1.093h5.701v1.093zm124.849-.984h-3.336v-1.032h3.336v1.032zm5.715-.731l-4.519-1.771v-1.299l5.838 2.584v.998l-5.838 2.591v-1.312l4.519-1.791zm-104.388 36.425l-.718-.492c.429-.597.652-1.212.67-1.845v-1.142h1.237v.991c0 .46-.113.921-.341 1.381-.224.46-.506.829-.848 1.107z" fill="#393"/><path d="M198.729 197.259l-.143 2.515h-.882l.007-3.274h1.018v.759zm2.981 2.345v8.25c0 1.422-.645 2.133-1.935 2.133-.278 0-.535-.041-.772-.123v-1.011c.146.036.337.054.574.054.283 0 .497-.077.643-.232.15-.151.225-.415.225-.793v-8.278h1.265zm-1.395-1.962c0-.201.062-.372.185-.513.128-.146.312-.219.554-.219.246 0 .433.071.56.212a.746.746 0 01.192.52.718.718 0 01-.192.512c-.127.137-.314.205-.56.205-.246 0-.431-.068-.554-.205a.735.735 0 01-.185-.512zm7.746 7.396c0-.342-.13-.606-.39-.793-.255-.191-.704-.355-1.347-.492-.638-.137-1.146-.301-1.524-.492-.374-.192-.652-.42-.834-.684a1.648 1.648 0 01-.267-.943c0-.606.255-1.119.766-1.538.515-.42 1.171-.629 1.969-.629.838 0 1.517.216 2.037.649.524.433.786.987.786 1.661h-1.272c0-.346-.148-.645-.444-.895-.292-.251-.661-.376-1.107-.376-.461 0-.821.1-1.08.301-.26.2-.39.462-.39.786 0 .305.121.535.362.69.242.155.677.303 1.306.445.633.141 1.146.309 1.538.505.392.196.681.433.868.711.191.274.287.609.287 1.005 0 .661-.264 1.192-.793 1.593-.528.396-1.214.595-2.057.595-.593 0-1.117-.105-1.573-.315a2.59 2.59 0 01-1.073-.875 2.146 2.146 0 01-.383-1.223h1.265c.023.423.191.761.506 1.011.319.246.738.369 1.258.369.478 0 .861-.095 1.148-.287.292-.196.438-.455.438-.779zm2.577-1.805c0-.724.141-1.376.424-1.955.287-.578.683-1.025 1.189-1.34.51-.314 1.091-.471 1.743-.471 1.007 0 1.821.348 2.441 1.046.624.697.936 1.624.936 2.782v.089c0 .72-.139 1.367-.417 1.941a3.11 3.11 0 01-1.183 1.333c-.51.319-1.098.479-1.763.479-1.003 0-1.816-.349-2.441-1.046-.619-.697-.929-1.62-.929-2.769v-.089zm1.271.151c0 .82.189 1.479.568 1.975.382.497.893.745 1.531.745.642 0 1.153-.25 1.531-.751.378-.506.567-1.213.567-2.12 0-.811-.193-1.467-.581-1.968-.382-.506-.893-.759-1.531-.759-.624 0-1.128.248-1.511.745-.382.497-.574 1.208-.574 2.133zm8.244-3.78l.041.929c.565-.711 1.304-1.066 2.215-1.066 1.563 0 2.352.882 2.365 2.645V207h-1.264v-4.895c-.005-.533-.128-.927-.369-1.182-.237-.255-.609-.383-1.115-.383-.41 0-.77.109-1.08.328-.31.219-.551.506-.724.861V207h-1.265v-7.396h1.196zm6.59-2.345l-.143 2.515h-.882l.007-3.274h1.018v.759z" fill="#00F"/><path d="M45.759 260.301a.8.8 0 01.191-.547c.132-.146.328-.219.588-.219.26 0 .456.073.588.219a.769.769 0 01.205.547.727.727 0 01-.205.526c-.132.141-.328.212-.588.212-.26 0-.456-.071-.588-.212a.756.756 0 01-.191-.526zm.239 8.681l-.718-.492c.429-.597.652-1.212.67-1.845v-1.142h1.237v.991c0 .46-.113.921-.341 1.381-.224.46-.506.829-.848 1.107z" fill="#393"/><path d="M141.273 47.047h1.204l4.156 10.808h-1.203l-4.157-10.808zm7.944 8.88h4.717V57h-6.037v-9.953h1.32v8.88zm5.68-2.694c0-.724.142-1.376.424-1.955a3.217 3.217 0 011.19-1.34c.51-.314 1.091-.471 1.743-.471 1.007 0 1.821.348 2.44 1.046.625.697.937 1.624.937 2.782v.089c0 .72-.139 1.367-.417 1.941a3.119 3.119 0 01-1.183 1.333c-.51.32-1.098.479-1.763.479-1.003 0-1.817-.349-2.441-1.046-.62-.697-.93-1.62-.93-2.769v-.089zm1.272.15c0 .821.189 1.48.567 1.976.383.497.894.745 1.532.745.642 0 1.153-.25 1.531-.752.378-.505.567-1.212.567-2.119 0-.81-.193-1.467-.581-1.968a1.825 1.825 0 00-1.531-.76c-.624 0-1.128.25-1.511.746-.383.497-.574 1.208-.574 2.133zm9.112.192l-.793.827V57h-1.264V46.5h1.264v6.35l.677-.813 2.304-2.434h1.538l-2.878 3.09L169.342 57h-1.484l-2.577-3.425zM174.879 57c-.073-.146-.132-.406-.178-.78-.588.611-1.29.917-2.105.917-.729 0-1.329-.205-1.798-.615a2.015 2.015 0 01-.697-1.573c0-.77.291-1.367.875-1.79.587-.43 1.412-.643 2.474-.643h1.231v-.581c0-.443-.132-.793-.397-1.053-.264-.264-.654-.397-1.169-.397-.451 0-.829.114-1.135.342-.305.228-.458.504-.458.827h-1.271c0-.369.13-.724.39-1.066.264-.346.619-.62 1.066-.82a3.62 3.62 0 011.483-.301c.853 0 1.52.214 2.003.642.483.424.734 1.01.752 1.757v3.404c0 .68.087 1.22.26 1.62V57h-1.326zm-2.099-.964a2.22 2.22 0 001.128-.308c.356-.205.613-.471.773-.8v-1.517h-.992c-1.549 0-2.324.454-2.324 1.36 0 .397.132.707.397.93.264.224.604.335 1.018.335zm6.522.964h-1.265V46.5h1.265V57zm3.404 0h-1.265v-7.397h1.265V57zm-1.367-9.358c0-.206.061-.379.184-.52.128-.141.315-.212.561-.212.246 0 .433.07.561.212a.75.75 0 01.191.52.725.725 0 01-.191.512c-.128.137-.315.205-.561.205-.246 0-.433-.068-.561-.205a.738.738 0 01-.184-.512zm7.704 7.396c0-.342-.13-.606-.39-.793-.255-.191-.704-.355-1.346-.492-.638-.137-1.147-.3-1.525-.492-.373-.192-.651-.42-.834-.684a1.655 1.655 0 01-.266-.943c0-.606.255-1.119.765-1.538.515-.42 1.171-.63 1.969-.63.839 0 1.518.217 2.037.65.524.433.786.987.786 1.661h-1.271c0-.346-.148-.645-.445-.895-.291-.25-.66-.376-1.107-.376-.46 0-.82.1-1.08.3a.948.948 0 00-.39.787c0 .305.121.535.363.69.241.155.676.303 1.305.444.634.142 1.146.31 1.538.506.392.196.682.433.869.711.191.274.287.609.287 1.005 0 .661-.265 1.192-.793 1.593-.529.396-1.215.595-2.058.595-.592 0-1.117-.105-1.572-.315a2.585 2.585 0 01-1.073-.875 2.14 2.14 0 01-.383-1.223h1.264c.023.424.192.76.506 1.011.319.246.739.37 1.258.37.479 0 .861-.096 1.148-.288.292-.196.438-.455.438-.779zm5.981 2.099c-1.002 0-1.818-.328-2.447-.985-.629-.66-.943-1.542-.943-2.645v-.233c0-.733.139-1.387.417-1.962a3.275 3.275 0 011.176-1.353 2.954 2.954 0 011.64-.492c.962 0 1.709.316 2.242.95.534.633.8 1.54.8 2.72v.527h-5.011c.019.73.231 1.32.636 1.77.41.447.93.67 1.559.67.446 0 .825-.09 1.135-.273a2.85 2.85 0 00.813-.725l.772.602c-.619.953-1.549 1.429-2.789 1.429zm-.157-6.631c-.51 0-.939.187-1.285.56-.346.37-.561.89-.643 1.559h3.706v-.096c-.037-.642-.21-1.139-.52-1.49-.31-.355-.729-.533-1.258-.533zm3.828-3.46h1.203l4.157 10.809h-1.203l-4.157-10.808zm7.944 8.88h4.716V57h-6.036v-9.953h1.32v8.88zm5.68-2.693c0-.724.142-1.376.424-1.955a3.217 3.217 0 011.19-1.34c.51-.314 1.091-.471 1.743-.471 1.007 0 1.82.348 2.44 1.046.625.697.937 1.624.937 2.782v.089c0 .72-.139 1.367-.417 1.941a3.119 3.119 0 01-1.183 1.333c-.51.32-1.098.479-1.764.479-1.002 0-1.816-.349-2.44-1.046-.62-.697-.93-1.62-.93-2.769v-.089zm1.272.15c0 .821.189 1.48.567 1.976.383.497.893.745 1.531.745.643 0 1.153-.25 1.532-.752.378-.505.567-1.212.567-2.119 0-.81-.194-1.467-.581-1.968a1.825 1.825 0 00-1.531-.76c-.625 0-1.128.25-1.511.746-.383.497-.574 1.208-.574 2.133zm9.112.192l-.793.827V57h-1.264V46.5h1.264v6.35l.677-.813 2.304-2.434h1.538l-2.878 3.09L226.764 57h-1.484l-2.577-3.425zM232.301 57c-.073-.146-.132-.406-.178-.78-.588.611-1.29.917-2.105.917-.73 0-1.329-.205-1.798-.615a2.016 2.016 0 01-.698-1.573c0-.77.292-1.367.875-1.79.588-.43 1.413-.643 2.475-.643h1.231v-.581c0-.443-.133-.793-.397-1.053-.264-.264-.654-.397-1.169-.397-.451 0-.829.114-1.135.342-.305.228-.458.504-.458.827h-1.271c0-.369.13-.724.389-1.066.265-.346.62-.62 1.067-.82a3.62 3.62 0 011.483-.301c.853 0 1.52.214 2.003.642.483.424.734 1.01.752 1.757v3.404c0 .68.087 1.22.26 1.62V57h-1.326zm-2.099-.964a2.22 2.22 0 001.128-.308c.356-.205.613-.471.773-.8v-1.517h-.992c-1.549 0-2.324.454-2.324 1.36 0 .397.132.707.397.93.264.224.603.335 1.018.335zm6.522.964h-1.265V46.5h1.265V57zm3.404 0h-1.265v-7.397h1.265V57zm-1.367-9.358c0-.206.061-.379.184-.52.128-.141.315-.212.561-.212.246 0 .433.07.56.212a.745.745 0 01.192.52.721.721 0 01-.192.512c-.127.137-.314.205-.56.205-.246 0-.433-.068-.561-.205a.738.738 0 01-.184-.512zm7.704 7.396c0-.342-.13-.606-.39-.793-.255-.191-.704-.355-1.346-.492-.639-.137-1.147-.3-1.525-.492-.374-.192-.652-.42-.834-.684a1.648 1.648 0 01-.266-.943c0-.606.255-1.119.765-1.538.515-.42 1.171-.63 1.969-.63.838 0 1.517.217 2.037.65.524.433.786.987.786 1.661h-1.271c0-.346-.148-.645-.445-.895-.291-.25-.66-.376-1.107-.376-.46 0-.82.1-1.08.3a.948.948 0 00-.39.787c0 .305.121.535.362.69.242.155.677.303 1.306.444.634.142 1.146.31 1.538.506.392.196.682.433.868.711.192.274.287.609.287 1.005 0 .661-.264 1.192-.792 1.593-.529.396-1.215.595-2.058.595-.593 0-1.117-.105-1.572-.315a2.595 2.595 0 01-1.074-.875 2.147 2.147 0 01-.382-1.223h1.264c.023.424.192.76.506 1.011.319.246.738.37 1.258.37.478 0 .861-.096 1.148-.288.292-.196.438-.455.438-.779zm5.981 2.099c-1.002 0-1.818-.328-2.447-.985-.629-.66-.943-1.542-.943-2.645v-.233c0-.733.139-1.387.417-1.962a3.28 3.28 0 011.175-1.353 2.96 2.96 0 011.641-.492c.962 0 1.709.316 2.242.95.533.633.8 1.54.8 2.72v.527h-5.011c.019.73.23 1.32.636 1.77.41.447.93.67 1.559.67.446 0 .825-.09 1.134-.273a2.86 2.86 0 00.814-.725l.772.602c-.619.953-1.549 1.429-2.789 1.429zm-.157-6.631c-.51 0-.939.187-1.285.56-.346.37-.561.89-.643 1.559h3.705v-.096c-.036-.642-.209-1.139-.519-1.49-.31-.355-.729-.533-1.258-.533zm10.206 3.896h-4.17L257.389 57h-1.354l3.801-9.953h1.148L264.792 57h-1.347l-.95-2.598zm-3.773-1.08h3.383l-1.695-4.655-1.688 4.655zm13.46.062c0 1.125-.258 2.032-.773 2.72-.515.689-1.212 1.033-2.092 1.033-.897 0-1.604-.285-2.119-.855v3.562h-1.264v-10.24h1.155l.061.82c.515-.638 1.231-.957 2.147-.957.889 0 1.59.335 2.105 1.005.52.67.78 1.602.78 2.796v.116zm-1.265-.144c0-.834-.178-1.492-.533-1.975-.356-.483-.843-.725-1.463-.725-.766 0-1.34.34-1.723 1.019v3.534c.378.674.957 1.011 1.737 1.011.606 0 1.086-.239 1.442-.717.36-.483.54-1.199.54-2.147zm4.252 3.76h-1.265v-7.397h1.265V57zm-1.367-9.358c0-.206.061-.379.184-.52.128-.141.315-.212.561-.212.246 0 .433.07.56.212a.745.745 0 01.192.52.721.721 0 01-.192.512c-.127.137-.314.205-.56.205-.246 0-.433-.068-.561-.205a.738.738 0 01-.184-.512zm10.917 6.2c-.123 1.053-.513 1.866-1.169 2.44-.652.57-1.52.855-2.605.855-1.175 0-2.119-.422-2.83-1.265-.706-.843-1.059-1.971-1.059-3.384v-.957c0-.925.164-1.738.492-2.44.333-.702.802-1.24 1.408-1.614.606-.378 1.308-.567 2.106-.567 1.057 0 1.904.296 2.542.889.639.588 1.01 1.404 1.115 2.447h-1.32c-.114-.793-.362-1.367-.745-1.723-.378-.355-.909-.533-1.592-.533-.839 0-1.498.31-1.976.93-.474.62-.711 1.502-.711 2.645v.964c0 1.08.226 1.94.677 2.577.451.639 1.082.957 1.893.957.729 0 1.288-.164 1.675-.492.392-.332.652-.909.779-1.73h1.32zM287.692 57h-1.264V46.5h1.264V57zm3.405 0h-1.265v-7.397h1.265V57zm-1.368-9.358c0-.206.062-.379.185-.52.128-.141.315-.212.561-.212.246 0 .433.07.56.212a.745.745 0 01.192.52.721.721 0 01-.192.512c-.127.137-.314.205-.56.205-.246 0-.433-.068-.561-.205a.738.738 0 01-.185-.512zm6.467 9.495c-1.002 0-1.818-.328-2.447-.985-.629-.66-.943-1.542-.943-2.645v-.233c0-.733.139-1.387.417-1.962a3.28 3.28 0 011.175-1.353 2.96 2.96 0 011.641-.492c.962 0 1.709.316 2.242.95.533.633.8 1.54.8 2.72v.527h-5.011c.019.73.23 1.32.636 1.77.41.447.93.67 1.559.67.446 0 .825-.09 1.134-.273a2.86 2.86 0 00.814-.725l.772.602c-.619.953-1.549 1.429-2.789 1.429zm-.157-6.631c-.51 0-.939.187-1.285.56-.346.37-.561.89-.643 1.559h3.705v-.096c-.036-.642-.209-1.139-.519-1.49-.31-.355-.729-.533-1.258-.533zm5.708-.903l.041.93c.565-.71 1.303-1.066 2.215-1.066 1.563 0 2.351.882 2.365 2.645V57h-1.264v-4.895c-.005-.533-.128-.927-.37-1.182-.237-.255-.608-.383-1.114-.383-.41 0-.77.11-1.08.328a2.24 2.24 0 00-.725.861V57h-1.264v-7.397h1.196zm8.244-1.79v1.79h1.381v.978h-1.381v4.587c0 .296.062.52.185.67.123.146.332.219.629.219.146 0 .346-.028.601-.082V57a3.662 3.662 0 01-.97.137c-.566 0-.992-.171-1.279-.513-.287-.342-.43-.827-.43-1.456v-4.587h-1.347v-.978h1.347v-1.79h1.264z" fill="#9876AA"/><path d="M192.589 113.288h-3.336v-1.032h3.336v1.032zm5.715-.731l-4.519-1.771v-1.299l5.838 2.584v.998l-5.838 2.591v-1.312l4.519-1.791z" fill="#393"/><path d="M102.729 197.259l-.143 2.515h-.882l.007-3.274h1.018v.759zm2.297 9.741v-6.419h-1.169v-.977h1.169v-.759c0-.793.212-1.406.636-1.839.424-.433 1.023-.65 1.798-.65.292 0 .581.039.868.117l-.068 1.025a3.634 3.634 0 00-.684-.061c-.41 0-.727.12-.95.362-.223.237-.335.579-.335 1.025v.78h1.579v.977h-1.579V207h-1.265zm3.911-3.767c0-.724.141-1.376.423-1.955a3.226 3.226 0 011.19-1.34c.51-.314 1.091-.471 1.743-.471 1.007 0 1.821.348 2.44 1.046.625.697.937 1.624.937 2.782v.089c0 .72-.139 1.367-.417 1.941a3.117 3.117 0 01-1.183 1.333c-.51.319-1.098.479-1.763.479-1.003 0-1.816-.349-2.441-1.046-.62-.697-.929-1.62-.929-2.769v-.089zm1.271.151c0 .82.189 1.479.567 1.975.383.497.894.745 1.532.745.642 0 1.153-.25 1.531-.751.378-.506.567-1.213.567-2.12 0-.811-.193-1.467-.581-1.968-.383-.506-.893-.759-1.531-.759-.624 0-1.128.248-1.511.745s-.574 1.208-.574 2.133zm10.623-2.646a3.777 3.777 0 00-.622-.048c-.829 0-1.392.354-1.688 1.06V207h-1.265v-7.396h1.23l.021.854c.415-.661 1.002-.991 1.764-.991.246 0 .432.032.56.095v1.176zm2.358-1.134l.035.82c.542-.638 1.273-.957 2.194-.957 1.034 0 1.739.396 2.112 1.189.246-.355.565-.642.957-.861.397-.219.864-.328 1.402-.328 1.622 0 2.447.859 2.474 2.577V207h-1.264v-4.881c0-.529-.121-.923-.363-1.182-.241-.265-.647-.397-1.216-.397-.47 0-.86.141-1.169.424-.31.278-.49.654-.54 1.128V207h-1.272v-4.847c0-1.075-.526-1.613-1.579-1.613-.829 0-1.397.353-1.702 1.06v5.4h-1.265v-7.396h1.196zM138.844 207c-.073-.146-.132-.406-.178-.779-.588.61-1.29.916-2.105.916-.73 0-1.329-.205-1.798-.616a2.014 2.014 0 01-.698-1.572c0-.77.292-1.367.875-1.791.588-.428 1.413-.642 2.475-.642h1.231v-.581c0-.442-.133-.793-.397-1.053-.264-.264-.654-.397-1.169-.397-.451 0-.829.114-1.135.342-.305.228-.458.504-.458.827h-1.271c0-.369.13-.724.389-1.066.265-.346.62-.62 1.067-.82a3.604 3.604 0 011.483-.301c.852 0 1.52.214 2.003.642.483.424.734 1.01.752 1.757v3.405c0 .679.087 1.219.26 1.62V207h-1.326zm-2.099-.964a2.22 2.22 0 001.128-.307c.356-.206.613-.472.773-.8v-1.518h-.992c-1.549 0-2.324.454-2.324 1.36 0 .397.132.707.397.93.264.223.603.335 1.018.335zm6.863-8.224v1.792h1.381v.977h-1.381v4.587c0 .296.062.52.185.67.123.146.333.219.629.219.146 0 .346-.028.601-.082V207a3.667 3.667 0 01-.97.137c-.565 0-.991-.171-1.279-.513-.287-.342-.43-.827-.43-1.456v-4.587h-1.347v-.977h1.347v-1.792h1.264zm3.637-.553l-.143 2.515h-.882l.007-3.274h1.018v.759z" fill="#00F"/><path d="M429.759 50.3c0-.218.064-.4.191-.546.132-.146.328-.219.588-.219.26 0 .456.073.588.219a.767.767 0 01.205.547c0 .21-.068.385-.205.526-.132.141-.328.212-.588.212-.26 0-.456-.07-.588-.212a.758.758 0 01-.191-.526zm.239 8.682l-.718-.492c.429-.597.652-1.212.67-1.846v-1.141h1.238v.991c0 .46-.114.92-.342 1.381-.224.46-.506.83-.848 1.107z" fill="#393"/><path d="M69.061 225.625h2.584v13.508h-2.584v-1.039h1.32v-11.43h-1.32v-1.039zM325.909 112.96c0-1.03.137-2.019.41-2.967a8.682 8.682 0 011.238-2.584c.547-.775 1.114-1.321 1.702-1.64l.26.834c-.666.51-1.213 1.289-1.641 2.337-.424 1.049-.656 2.222-.697 3.521l-.007.581c0 1.759.321 3.286.964 4.58.387.775.847 1.381 1.381 1.818l-.26.773c-.606-.337-1.185-.902-1.737-1.695-1.075-1.55-1.613-3.402-1.613-5.558z" fill="#090"/></g></g><defs><clipPath id="clip0_1_197"><path fill="#fff" d="M0 0h500v300H0z"/></clipPath><clipPath id="clip1_1_197"><path fill="#fff" transform="translate(30 30)" d="M0 0h440v240H0z"/></clipPath><clipPath id="clip2_1_197"><path fill="#fff" transform="translate(30 30)" d="M0 0h440v240H0z"/></clipPath><filter id="filter0_d_1_197" x="-10" y="-10" width="520" height="320" filterUnits="userSpaceOnUse" color-interpolation-filters="sRGB"><feFlood flood-opacity="0" result="BackgroundImageFix"/><feColorMatrix in="SourceAlpha" values="0 0 0 0 0 0 0 0 0 0 0 0 0 0 0 0 0 0 127 0" result="hardAlpha"/><feOffset/><feGaussianBlur stdDeviation="5"/><feColorMatrix values="0 0 0 0 0 0 0 0 0 0 0 0 0 0 0 0 0 0 0.098 0"/><feBlend in2="BackgroundImageFix" result="effect1_dropShadow_1_197"/><feBlend in="SourceGraphic" in2="effect1_dropShadow_1_197" result="shape"/></filter></defs></svg>