<svg width="123" height="12" fill="none" xmlns="http://www.w3.org/2000/svg"><path d="M.44.275h1.305v4.86h5.64V.275H8.69V11H7.385V6.23h-5.64V11H.44V.275zm11.958 0h1.305V11h-1.305V.275zm9.676 10.86c-.83 0-1.565-.135-2.205-.405a4.73 4.73 0 01-1.635-1.125 5.024 5.024 0 01-1.005-1.725 6.656 6.656 0 01-.345-2.175v-.12c0-.78.125-1.505.375-2.175a5.13 5.13 0 011.065-1.74A4.82 4.82 0 0119.959.53a5.22 5.22 0 012.115-.42c.53 0 1.04.065 1.53.195a4 4 0 011.32.615c.4.27.73.62.99 1.05.27.43.445.945.525 1.545h-1.305c-.15-.85-.5-1.455-1.05-1.815-.54-.37-1.2-.555-1.98-.555-.62 0-1.17.11-1.65.33-.48.21-.885.51-1.215.9-.33.39-.58.855-.75 1.395-.17.54-.255 1.14-.255 1.8v.12c0 .66.08 1.265.24 1.815.17.54.415 1 .735 1.38.32.38.72.675 1.2.885.48.21 1.035.315 1.665.315.58 0 1.08-.09 1.5-.27.42-.18.765-.42 1.035-.72.28-.31.485-.67.615-1.08.14-.42.215-.87.225-1.35h-3.135v-1.08h4.41v.795c0 .78-.115 1.465-.345 2.055a3.984 3.984 0 01-.945 1.485c-.41.4-.9.705-1.47.915-.57.2-1.2.3-1.89.3zM29.848.275h1.305v4.86h5.64V.275h1.305V11h-1.305V6.23h-5.64V11h-1.305V.275zm11.883 0h6.255V1.34h-4.95v3.645h3.99V6.05h-3.99v3.885h5.22V11h-6.525V.275zm12.887 10.86c-.72 0-1.33-.09-1.83-.27a3.58 3.58 0 01-1.215-.75 3.19 3.19 0 01-.735-1.08 5.084 5.084 0 01-.315-1.305h1.26c.04.32.11.625.21.915.1.28.255.53.465.75.21.21.485.38.825.51.35.12.795.18 1.335.18.34 0 .66-.045.96-.135.3-.1.56-.24.78-.42.22-.18.39-.395.51-.645.13-.25.195-.525.195-.825 0-.3-.04-.56-.12-.78-.08-.23-.22-.425-.42-.585-.19-.16-.455-.295-.795-.405a8 8 0 00-1.26-.285c-.56-.09-1.065-.205-1.515-.345-.44-.14-.815-.32-1.125-.54a2.27 2.27 0 01-.705-.84c-.16-.34-.24-.75-.24-1.23 0-.41.085-.79.255-1.14.17-.36.405-.67.705-.93.31-.26.675-.465 1.095-.615.42-.15.885-.225 1.395-.225 1.08 0 1.935.255 2.565.765.64.5 1.015 1.23 1.125 2.19h-1.17c-.13-.68-.395-1.165-.795-1.455-.4-.3-.975-.45-1.725-.45-.74 0-1.3.165-1.68.495-.37.32-.555.735-.555 1.245 0 .26.03.495.09.705.07.2.195.375.375.525.19.15.45.285.78.405a8.4 8.4 0 001.335.285c.6.09 1.125.21 1.575.36.45.15.83.345 1.14.585.31.24.54.535.69.885.16.35.24.78.24 1.29 0 .45-.095.87-.285 1.26a3.09 3.09 0 01-.765 1.005c-.33.28-.725.5-1.185.66-.45.16-.94.24-1.47.24zm8.69-9.795h-3.12V.275h7.544V1.34h-3.12V11h-1.305V1.34zM75.17.275h3.224c.51 0 .99.055 1.44.165.46.11.86.285 1.2.525.34.24.61.55.81.93.2.37.3.825.3 1.365v.06c0 .44-.07.83-.21 1.17-.14.33-.33.615-.57.855-.24.23-.52.42-.84.57-.32.15-.665.26-1.035.33L82.775 11H81.32l-3.194-4.665h-1.65V11H75.17V.275zM78.484 5.3c.77 0 1.356-.165 1.755-.495.4-.33.6-.825.6-1.485v-.06c0-.36-.055-.665-.165-.915-.11-.25-.264-.45-.465-.6a1.83 1.83 0 00-.75-.315 4.163 4.163 0 00-.974-.105h-2.01V5.3h2.01zm9.91-5.025h1.71L93.735 11h-1.29l-1.05-3.09H86.97L85.935 11h-1.23L88.395.275zm-1.065 6.6h3.72l-1.86-5.52-1.86 5.52zM97.7 1.34h-3.12V.275h7.545V1.34h-3.12V11H97.7V1.34zm7.143-1.065h6.255V1.34h-4.95v3.645h3.99V6.05h-3.99v3.885h5.22V11h-6.525V.275zm12.197 9.66c.69 0 1.29-.1 1.8-.3.52-.2.95-.485 1.29-.855.35-.37.61-.815.78-1.335.18-.53.27-1.125.27-1.785v-.12c0-.62-.08-1.185-.24-1.695a3.286 3.286 0 00-.735-1.335c-.33-.38-.76-.67-1.29-.87-.52-.21-1.15-.315-1.89-.315h-1.455v8.61h1.47zm-2.775-9.66h2.835c.92 0 1.72.135 2.4.405.68.27 1.245.64 1.695 1.11a4.48 4.48 0 011.005 1.665c.22.64.33 1.335.33 2.085v.135c0 .74-.11 1.435-.33 2.085-.21.65-.54 1.215-.99 1.695-.45.48-1.02.86-1.71 1.14-.68.27-1.49.405-2.43.405h-2.805V.275z" fill="#000"/></svg>